<svg width="717" height="558" viewBox="0 0 717 558" fill="none" xmlns="http://www.w3.org/2000/svg">
<path fill-rule="evenodd" clip-rule="evenodd" d="M610.664 145.417C618.052 148.963 623.076 151.438 628.358 154.246C638.407 170.684 644.539 190.78 643.615 215.235C641.62 237.806 636.597 256.239 629.615 271.311C624.775 259.01 613.324 246.265 600.505 234.887C599.685 234.174 598.865 233.446 598.039 232.712C596.297 231.165 594.528 229.594 592.674 228.09C584.344 221.047 575.544 214.58 566.335 208.733C565.227 208.076 564.166 207.38 563.143 206.709C562.155 206.061 561.203 205.436 560.277 204.891C559.432 204.292 558.557 203.737 557.654 203.229C555.594 201.873 553.902 200.83 552.591 200.022C552.045 199.685 551.565 199.389 551.152 199.129L549.896 198.464C549.823 198.362 549.719 198.284 549.601 198.242C549.179 195.513 549.035 193.769 548.844 191.444C548.784 190.717 548.72 189.933 548.64 189.044C536.265 183.355 527.473 180.141 512.143 175.228C511.663 171.46 511.404 169.576 510.739 165.623C495.556 161.227 488.057 159.38 473.503 156.24C472.725 150.597 472.288 147.519 471.569 142.453C471.502 141.982 471.432 141.493 471.36 140.984C488.793 143.711 506.013 147.661 522.892 152.805C522.228 148.428 521.747 145.122 521.267 141.816C520.787 138.509 520.307 135.203 519.642 130.825C507.599 127.87 501.688 126.725 490.311 124.841C489.936 122.724 489.684 121.11 489.443 119.568C489.137 117.611 488.849 115.77 488.353 113.168C479.45 111.948 475.313 111.431 467.001 110.803C466.41 107.017 465.994 104.182 465.579 101.347C465.163 98.5118 464.748 95.6764 464.156 91.8896C474.869 92.1849 480.706 92.4805 492.675 93.7366C493.894 100.792 494.448 104.228 495.519 111.284C516.982 114.313 528.618 116.566 551.263 123.289C550.376 113.611 550.007 108.661 549.305 98.9822C537.41 96.0639 531.832 94.9555 520.676 93.1085C520.543 92.2672 520.418 91.4828 520.299 90.7373C519.991 88.7986 519.724 87.1221 519.457 85.3879C533.531 88.5278 579.781 100.866 611.698 133.078C611.366 137.29 611.107 140.319 610.664 145.417ZM598.215 220.444C604.273 225.43 607.302 228.053 613.176 233.188C613.422 231.304 613.585 229.831 613.748 228.357C613.926 226.74 614.105 225.121 614.395 222.956C608.951 218.441 605.804 215.985 600.693 211.996C600.115 211.545 599.513 211.075 598.88 210.58C598.776 212.843 598.649 214.464 598.518 216.132C598.416 217.432 598.312 218.761 598.215 220.444ZM558.688 175.45C586.209 188.527 599.692 198.427 623.298 217.747C624.154 210.365 624.842 204.666 625.509 199.146C626.336 192.29 627.13 185.709 628.174 176.521C602.426 160.636 587.428 152.066 556.435 140.984C556.542 142.716 556.642 144.34 556.737 145.883C557.396 156.585 557.816 163.407 558.688 175.45ZM423.818 105.698C433.269 105.392 438.599 105.329 450.105 105.683L448.671 93.6892C437.493 93.8313 432.365 94.1354 423.313 94.8787L423.818 105.698ZM402.823 103.348C407.411 102.848 410.028 102.597 415.801 102.186L415.9 109.09C409.947 109.316 407.239 109.482 402.482 109.83L402.789 103.982L402.823 103.348ZM382.607 112.131C382.607 112.131 382.724 112.111 383.177 112.043C383.409 110.82 383.528 110.193 383.755 109.001L383.773 108.905C383.332 108.981 383.217 109.003 383.217 109.003L382.607 112.131ZM379.805 129.752L379.722 129.755L378.588 135.701L378.659 135.7H378.659H378.659H378.659H378.659H378.659H378.659C379.591 135.692 380.582 135.682 383.267 135.709L383.371 135.048L384.222 129.626C381.65 129.677 380.695 129.715 379.805 129.752ZM404.798 123.787C397.01 123.764 393.727 123.86 388.847 124.037L389.965 115.444C394.588 115.058 397.701 114.821 405.139 114.519L404.798 123.787ZM416.214 137.369C405.8 136.552 401.211 136.343 393.978 136.078L393.066 146.178C400.682 146.771 405.503 147.187 416.37 148.463L416.214 137.369ZM422.9 116.648C437.059 116.674 451.205 117.471 465.277 119.035L467.949 137.984C448.402 134.892 439.147 134.021 423.573 132.876L422.9 116.648Z" fill="url(#paint0_linear)"/>
<path d="M726.612 54.7592C720.451 54.9716 714.503 53.9095 708.767 51.5726C706.43 50.5105 704.094 49.4483 701.544 49.4483C697.296 49.4483 693.897 52.4224 690.923 55.3965C676.902 68.7801 662.668 82.3761 648.647 95.7597L648.223 95.9721C648.01 95.5472 647.798 95.1224 647.585 94.6975C645.886 90.8736 643.974 87.0497 641.849 83.2258C640.575 80.6766 639.088 78.1273 637.813 75.7905L638.238 75.5781C646.736 67.9303 655.446 60.2826 665.855 55.3965C668.829 53.9095 671.803 52.8473 674.565 50.9353C681.363 46.4741 685.612 38.8264 693.047 35.6398C697.508 33.7279 702.394 33.7279 707.068 32.6657C711.741 31.6035 716.203 29.904 720.239 27.3547C721.938 26.2925 724.488 25.4428 725.125 27.3547C725.337 27.7796 725.125 28.2045 725.125 28.6294C724.275 32.6657 722.576 36.4896 720.027 39.6761C718.964 41.1632 717.69 42.4378 717.265 44.1373C717.052 44.5622 717.052 44.9871 717.052 45.6244C717.477 49.8731 724.7 50.5105 726.612 54.7592Z" fill="#E5913C"/>
<path d="M573.444 56.6711C573.444 56.0338 573.869 55.3965 574.082 54.7592C574.932 52.6348 577.268 50.9353 579.393 51.5726C580.88 52.2099 581.729 53.9094 581.729 55.6089C581.729 57.3084 581.517 59.0079 581.517 60.7074C581.517 61.7696 581.942 62.8318 582.792 63.4691C583.854 64.3189 585.553 63.894 586.616 63.0442C587.678 62.1945 588.528 61.1323 589.377 60.2825C591.502 58.1582 594.263 56.8835 597.237 56.6711C600.636 56.6711 604.035 57.9457 607.434 57.096C610.833 56.2462 613.17 53.4846 616.569 52.6348C619.119 52.2099 621.668 52.8472 624.217 53.0597C624.642 53.0597 625.279 53.0597 625.704 53.0597C624.642 59.4328 622.305 65.8059 619.968 71.7542C618.694 74.7283 617.631 77.9149 616.357 80.889C616.357 81.1015 616.144 81.3139 616.144 81.5263C614.232 86.1999 612.32 91.086 608.921 94.6975C605.31 98.5213 599.574 100.858 594.688 99.1586C593.414 98.7338 592.351 98.0964 591.502 97.4591C586.191 97.4591 581.092 96.1845 576.631 93.6353C576.419 93.4228 576.206 93.4228 575.994 93.2104C575.994 92.9979 575.994 92.7855 575.994 92.3606C576.418 90.0238 577.056 87.687 577.693 85.3502C578.543 81.7387 579.393 78.1273 579.18 74.3034C578.968 72.6039 578.755 71.1169 578.755 69.4174C578.755 68.7801 578.755 68.1428 578.331 67.5054C578.118 67.0806 577.693 66.6557 577.268 66.4433C574.082 64.3189 572.595 60.2825 573.444 56.6711Z" fill="#E5913C"/>
<path d="M519.485 334.54C530.532 339.426 543.066 340.913 555.175 341.975C550.714 351.535 545.828 360.882 540.517 370.017C538.605 373.416 536.48 377.027 533.294 379.364C529.47 382.126 524.159 382.763 519.698 381.488C515.024 380.214 511.2 377.027 508.438 372.991C506.314 370.017 505.039 366.618 503.34 363.431C501.216 359.395 498.454 355.571 495.905 351.747L497.179 351.11C498.454 347.711 500.366 344.524 502.703 341.762C505.889 337.726 509.926 334.54 514.599 332.203C516.299 333.053 517.998 333.69 519.485 334.54Z" fill="#E5913C"/>
<path d="M598.3 237.88C584.066 236.181 570.045 231.507 558.999 222.372C560.698 221.735 562.185 220.885 563.885 220.248C571.533 217.062 580.03 215.999 588.315 217.062C595.326 218.124 602.124 220.673 609.134 222.16H609.346C618.269 224.072 627.404 224.072 636.326 224.497C638.025 224.497 639.725 224.709 641.424 225.134V225.559C641.424 229.17 641.637 232.782 642.062 236.393C627.616 238.305 612.958 239.58 598.3 237.88Z" fill="#E5913C"/>
<path d="M304.776 135.23C306.49 138.828 307.346 142.769 307.346 146.882C307.346 154.592 304.262 161.446 299.122 166.415C294.153 171.213 287.299 174.297 279.931 174.297C264.852 174.297 252.515 161.96 252.515 146.882C252.515 133.688 261.768 122.721 274.105 120.151C275.99 119.637 278.046 119.466 280.102 119.466C284.557 119.466 288.669 120.494 292.439 122.379C295.352 123.749 297.922 125.634 299.978 128.033C301.863 130.089 303.577 132.66 304.776 135.23Z" fill="#FF6712"/>
<path d="M433.631 91.0219C432.603 109.528 433.973 128.719 427.291 146.196C426.434 148.424 425.406 150.651 423.692 152.194C422.836 152.879 421.979 153.564 420.951 153.907C419.237 154.421 417.353 154.25 415.639 154.078C400.218 152.022 385.653 146.196 370.917 140.884C370.06 140.542 369.032 140.199 368.175 139.856C363.892 138.314 359.608 136.943 355.153 136.943H354.81C352.583 136.943 350.355 137.286 348.127 136.772C344.015 135.573 341.273 130.775 337.161 130.946C334.934 130.946 333.049 132.317 331.164 133.174C328.594 134.202 325.681 134.373 322.939 133.688C326.537 130.09 331.335 127.519 336.476 126.834C331.849 125.977 327.223 125.12 322.768 124.264C322.425 124.264 322.082 124.092 321.74 124.092V124.264C318.313 126.834 314.886 129.233 311.287 131.803C309.231 133.345 307.175 134.716 304.947 135.744C303.748 133.002 302.035 130.604 299.978 128.376C297.751 126.148 295.181 124.264 292.439 122.721C296.38 118.952 300.321 115.182 304.433 111.755C312.315 105.244 321.568 99.5893 326.195 90.5078C328.08 86.9095 329.108 82.7971 330.993 79.3701C336.133 70.1173 346.414 65.3195 353.953 57.9515C353.953 58.1228 353.782 58.1228 353.782 58.2942C353.097 60.0077 352.925 61.8925 352.582 63.7774C352.068 67.3757 351.04 70.8027 350.012 74.401C348.47 79.5415 347.099 84.682 347.442 89.8224C347.613 91.8786 347.785 93.7635 348.299 95.6483H348.127C343.158 102.502 337.675 109.014 331.507 114.839C334.077 115.353 336.647 115.868 339.046 116.724C342.816 118.095 346.243 120.151 349.841 122.036C351.04 122.721 352.24 123.236 353.439 123.921C355.324 124.949 357.38 125.634 359.436 126.32C362.863 127.348 366.462 127.691 370.06 127.862C371.088 127.862 371.945 128.033 372.973 128.033C385.653 128.89 398.333 129.233 411.013 129.404C409.47 121.179 409.128 112.612 409.984 104.387H409.813C407.072 99.0753 407.072 92.9067 407.414 87.0808C407.757 81.9404 408.442 76.9712 409.984 72.1735C410.156 71.6594 410.327 71.3167 410.499 70.8027C411.869 67.2043 413.926 63.606 416.496 60.6931C424.378 64.2914 431.574 70.46 433.631 78.8561C434.316 82.4544 433.973 86.7381 433.631 91.0219Z" fill="#FFD4A1"/>
<path d="M354.639 286.36C353.268 291.672 351.212 296.812 348.984 301.953C343.501 315.147 338.532 328.683 336.818 342.905C335.962 342.22 334.762 341.706 333.563 341.534C331.507 341.02 329.45 340.849 327.223 341.02H327.051C325.509 341.02 323.967 341.363 322.939 342.391C322.596 342.905 322.425 343.248 322.082 343.933C324.824 329.369 324.481 314.461 324.995 299.725C325.509 284.818 326.88 269.739 332.706 256.031C334.248 252.261 336.133 248.834 337.675 245.065C339.217 241.124 340.245 237.011 340.931 232.899C340.931 232.728 340.931 232.556 340.931 232.214C342.13 224.332 342.301 216.278 342.301 208.225V208.053C343.158 207.882 344.015 207.711 344.872 207.539C349.498 206.854 354.125 206.683 358.751 207.197C360.293 207.368 361.835 207.539 363.377 207.882C367.147 208.567 370.917 209.595 374.001 211.823C374.344 211.994 374.686 212.337 375.029 212.68L374.858 212.851C373.658 219.362 371.602 225.702 369.375 231.871C369.375 231.871 369.203 231.871 369.203 232.042V232.385C369.203 232.556 369.032 232.728 369.032 232.899C364.748 244.893 359.608 256.545 357.209 269.054C356.695 274.708 356.181 280.534 354.639 286.36Z" fill="#FFD4A1"/>
<path d="M386.852 264.598C389.08 271.281 388.908 278.82 386.167 285.503C385.139 288.245 383.597 290.815 382.055 293.385C377.428 301.267 372.973 309.149 369.889 317.545C369.375 319.087 368.689 320.63 368.347 322.172C368.004 323.371 367.661 324.742 366.633 325.599C365.776 326.627 364.406 326.97 363.206 327.312C362.692 327.484 362.007 327.484 361.493 327.655C359.95 327.826 358.408 327.998 356.866 327.826C355.667 327.655 354.467 327.484 353.611 326.627C352.582 325.77 352.411 324.228 352.582 323.029C352.754 321.658 353.268 320.458 353.782 319.259C355.495 315.318 356.866 311.205 358.066 307.264C362.178 293.899 364.406 279.849 366.462 265.969C366.633 264.427 366.976 262.714 367.147 261.171C367.318 261.171 367.49 261.171 367.661 261C372.63 262.028 377.599 262.885 382.74 263.913C384.282 264.084 385.653 264.256 386.852 264.598Z" fill="#FFD4A1"/>
<path d="M363.549 40.4738C362.521 38.9317 362.178 36.8755 362.692 35.162C362.863 34.648 363.035 34.1339 363.377 33.6199C364.577 31.9064 366.804 31.0496 368.861 31.735C370.403 32.7631 372.63 32.2491 374.001 30.8783C375.372 29.5075 376.057 27.6226 376.571 25.7378C377.085 23.853 377.599 21.9681 378.628 20.426C380.855 17.513 384.625 16.4849 388.394 16.1422C391.821 15.6282 395.42 15.2855 398.161 13.2293C403.302 23.6816 404.159 36.0188 402.102 47.4991C402.102 48.0132 401.931 48.5272 401.76 49.0413C401.588 49.898 401.417 50.9261 401.074 51.7829H401.246C401.588 54.0104 400.56 56.0666 399.532 57.9514C396.448 63.9487 393.021 69.9459 388.223 74.5723C386.852 75.9431 385.482 76.9712 383.939 77.9993C381.883 79.3701 379.484 80.3982 377.085 80.5695C374.687 80.7409 371.945 79.7128 370.574 77.8279C369.546 76.4571 369.203 74.7437 369.032 73.0302C367.833 65.6621 367.319 58.1228 367.49 50.5834C367.49 48.1845 367.661 45.7856 367.833 43.3867C366.29 43.0441 364.748 42.016 363.549 40.4738Z" fill="#FFD4A1"/>
<path d="M359.265 207.197C354.639 206.854 349.841 206.854 345.386 207.539C344.529 207.711 343.672 207.882 342.816 208.053C340.931 208.567 339.217 209.253 337.847 210.795C335.962 213.194 335.962 216.621 336.476 219.705C337.332 224.16 338.875 228.444 341.274 232.385C341.274 232.556 341.273 232.728 341.102 232.899C338.018 229.472 335.276 225.874 332.877 221.933C331.507 219.705 330.307 217.478 330.136 214.907C329.964 212.337 330.993 209.767 332.535 207.539C333.905 205.312 335.619 203.427 337.161 201.199C340.245 196.402 341.788 190.747 342.644 185.093C343.501 179.438 343.672 173.783 344.529 168.129C345.043 164.531 345.729 160.761 347.956 157.848C349.498 155.62 351.726 154.078 354.296 153.05C354.981 154.764 356.181 156.306 357.552 157.677C369.032 168.814 385.31 174.298 401.246 174.469C406.558 174.469 411.869 173.955 416.838 172.241C417.695 171.899 418.723 171.556 419.409 170.699C419.751 170.357 419.923 170.185 420.094 169.842C420.437 169.328 420.608 168.643 420.78 167.958V167.786L421.122 167.958C423.692 171.899 424.721 176.696 424.549 181.494C424.378 186.121 423.007 190.747 421.465 195.202C417.353 207.025 411.527 218.163 407.757 230.157C406.386 234.784 405.187 239.582 402.616 243.694C400.732 246.95 397.99 249.691 397.133 253.461C396.619 255.86 397.133 258.601 395.934 260.829C394.906 263.056 392.336 264.427 389.937 264.599C388.909 264.77 387.709 264.77 386.681 264.599C385.31 264.427 383.939 264.256 382.569 263.913C377.599 262.885 372.459 262.028 367.49 261C369.546 260.658 371.602 260.143 373.487 259.287C376.057 258.087 378.456 255.688 379.142 252.947C379.484 251.576 379.313 249.863 380.17 248.834C380.855 247.978 382.055 247.464 383.083 247.121C386.338 246.093 389.594 245.065 392.678 243.351C395.591 241.638 398.161 238.896 398.675 235.469C399.018 233.242 398.333 230.843 398.504 228.615C398.675 224.846 400.903 221.419 403.473 218.677C406.043 215.935 408.785 213.365 410.841 210.11C411.869 208.567 412.555 206.854 412.212 205.14C411.869 202.742 409.47 201.199 407.928 199.486C405.872 197.258 404.673 194.345 402.959 191.947C401.246 189.376 398.675 187.149 395.591 187.149C391.821 187.149 388.909 190.747 387.88 194.517C387.024 198.286 387.538 202.056 387.366 205.826C386.852 217.306 379.656 228.273 369.375 233.242C369.375 233.07 369.375 232.899 369.375 232.899C369.375 232.728 369.546 232.556 369.546 232.385C372.63 230.329 375.201 227.416 376.743 223.989C377.771 221.59 378.456 218.677 377.428 216.278C376.914 215.079 376.057 214.051 375.201 213.194C374.858 212.851 374.515 212.68 374.173 212.337C371.088 210.11 367.319 209.081 363.549 208.396C362.349 207.539 360.807 207.197 359.265 207.197Z" fill="#BE1E2D"/>
<path d="M372.63 127.691C385.31 128.547 397.99 128.89 410.67 129.061C409.128 120.837 408.785 112.269 409.642 104.044H409.47C406.729 98.7325 406.729 92.5639 407.071 86.7381C407.414 81.5976 408.1 76.6285 409.642 71.8307C409.813 71.3167 409.984 70.8026 410.156 70.4599C414.097 71.3166 417.524 74.4009 419.58 77.9993C421.636 81.9403 422.321 86.5667 422.15 91.0218C421.979 95.4769 421.293 99.932 420.779 104.387C420.265 110.042 420.094 115.525 420.608 121.179C421.122 126.834 421.807 133.345 418.209 137.8C415.468 141.056 411.012 142.255 406.9 142.084C402.788 141.913 398.675 140.542 394.734 139.171C389.936 137.8 385.139 136.601 380.17 135.744C375.372 134.887 370.574 134.202 366.119 132.66C359.95 130.432 354.81 126.491 349.669 122.207C350.869 122.893 352.068 123.407 353.268 124.092C355.153 125.12 357.209 125.806 359.265 126.491C362.692 127.519 366.29 127.691 369.889 128.033C370.745 127.519 371.602 127.519 372.63 127.691Z" fill="#F4A958"/>
<path d="M420.951 153.907C421.979 153.564 422.836 153.05 423.692 152.193C423.35 157.505 422.322 162.646 420.951 167.786V167.958C420.78 168.643 420.608 169.157 420.265 169.842H420.094C419.58 164.873 414.954 161.275 410.327 160.076C405.529 158.876 400.56 159.39 395.591 159.562C391.822 159.733 388.052 159.561 384.282 159.047C381.883 158.705 379.313 158.362 377.257 157.334C371.602 154.592 368.689 147.224 370.917 141.399L371.088 141.056C385.824 146.196 400.389 152.194 415.81 154.25C417.353 154.25 419.237 154.421 420.951 153.907Z" fill="#E09905"/>
<path d="M354.296 152.879C354.125 152.365 353.953 151.851 353.953 151.337C353.782 149.966 354.296 148.424 354.639 147.053C355.324 143.969 355.495 140.713 355.153 137.457V136.943C359.608 136.943 363.892 138.314 368.175 139.856C369.032 140.199 370.06 140.542 370.917 140.884L370.746 141.227C368.518 147.053 371.431 154.421 377.085 157.163C379.313 158.191 381.712 158.705 384.111 158.876C387.88 159.39 391.65 159.561 395.42 159.39C400.389 159.219 405.358 158.705 410.156 159.904C414.954 161.104 419.58 164.702 419.923 169.671H420.094C419.923 170.014 419.751 170.356 419.409 170.528C418.723 171.213 417.867 171.556 416.838 172.07C411.869 173.955 406.558 174.469 401.246 174.297C385.31 174.126 369.032 168.643 357.552 157.505C356.352 156.306 354.981 154.764 354.296 152.879Z" fill="#FAB423"/>
<path d="M410.156 70.1173C409.984 70.6313 409.813 70.974 409.642 71.4881C408.1 76.2859 407.414 81.4263 407.071 86.3955C406.729 92.2213 406.729 98.5613 409.47 103.702H409.642C408.785 112.098 409.128 120.494 410.67 128.719C397.99 128.719 385.31 128.205 372.63 127.348C374.686 124.778 375.543 121.351 374.686 118.266C373.487 113.126 368.518 109.528 366.976 104.387C366.119 101.474 366.633 98.2185 368.175 95.6483C369.889 92.9067 372.63 91.0219 375.372 89.6511C378.285 88.2803 381.198 87.0809 383.939 85.5387C385.653 84.5106 387.366 83.3112 388.394 81.5977C389.422 79.8842 389.937 77.6567 389.251 75.7718C389.08 75.2578 388.737 74.7437 388.394 74.401C393.192 69.7746 396.619 63.7774 399.703 57.7801C400.731 55.8953 401.76 53.6678 401.417 51.6116H401.246C401.588 50.7548 401.76 49.8981 401.931 48.87C403.816 49.8981 405.872 51.0975 407.757 52.1256C411.012 54.0105 414.439 55.8953 417.352 58.2942C416.838 58.8082 416.324 59.1509 415.982 59.665C413.411 62.9206 411.526 66.519 410.156 70.1173Z" fill="#E09905"/>
<path d="M412.726 204.798C413.069 206.511 412.212 208.225 411.355 209.767C409.299 212.851 406.386 215.421 403.987 218.334C401.417 221.076 399.361 224.503 399.018 228.272C398.847 230.671 399.532 232.899 399.189 235.126C398.675 238.553 396.105 241.295 393.192 243.009C390.279 244.722 386.852 245.579 383.597 246.778C382.569 247.121 381.369 247.635 380.684 248.492C379.827 249.691 379.827 251.233 379.656 252.604C378.97 255.517 376.743 257.745 374.001 258.944C372.116 259.801 370.06 260.315 368.004 260.658C367.833 260.658 367.661 260.658 367.49 260.486C366.976 260.315 366.29 260.315 365.776 259.972C364.234 258.944 364.92 256.545 365.605 255.003C368.518 247.978 369.889 240.267 369.889 232.728C380.17 227.758 387.538 216.792 387.88 205.312C388.052 201.542 387.538 197.601 388.394 194.003C389.251 190.233 392.335 186.635 396.105 186.635C399.189 186.635 401.76 188.862 403.473 191.432C405.187 194.003 406.386 196.744 408.442 198.972C409.984 200.857 412.212 202.399 412.726 204.798Z" fill="#9F1926"/>
<path d="M401.588 51.9542C401.931 54.1818 400.903 56.238 399.875 58.1228C396.791 64.12 393.364 70.1173 388.566 74.7437C387.88 73.7156 386.852 72.8589 385.824 72.0021C377.428 64.8054 371.431 54.6958 369.203 43.7295C369.375 43.7295 369.546 43.7295 369.717 43.7295C370.403 43.7295 371.26 43.7295 371.945 44.0722C373.144 44.5862 373.83 45.7857 374.515 46.8138C378.114 52.1256 383.597 56.238 389.937 57.6088C392.336 58.1228 394.906 58.2942 396.962 57.2661C398.675 56.4093 400.046 54.8672 400.903 52.9823C401.074 52.4683 401.246 52.1256 401.417 51.6115L401.588 51.9542Z" fill="#F4A958"/>
<path d="M398.504 13.4006C395.763 15.4568 392.164 15.7995 388.737 16.3136C385.139 16.8276 381.198 17.6844 379.142 20.5973C377.942 22.1395 377.6 24.0243 377.085 25.9091C376.571 27.794 375.886 29.6788 374.515 31.0496C373.144 32.4204 370.917 32.9344 369.375 31.9064C367.49 31.3923 365.091 32.0777 363.892 33.7912C363.549 34.3053 363.378 34.648 363.206 35.162C361.15 34.4766 359.608 32.4204 359.094 30.3642C358.408 27.794 358.922 25.2237 359.951 22.6535C360.807 20.2546 362.007 17.8557 362.863 15.4568C363.72 12.8866 364.063 10.145 365.776 7.91747C367.319 6.03262 369.717 5.17589 372.116 4.66184C374.515 4.14779 376.914 3.97643 379.142 3.11968C382.226 1.92024 384.968 -0.30728 388.223 0.0354188C390.451 0.378117 392.336 1.92026 393.878 3.4624C395.763 5.17589 397.647 6.88939 399.704 8.60288C400.218 8.94558 400.732 9.45961 400.903 10.145C401.246 11.1731 400.389 12.3725 399.532 13.0579C398.675 13.2293 398.504 13.2293 398.504 13.4006Z" fill="#101010"/>
<path d="M353.782 57.7801C354.981 55.2098 357.723 53.325 360.464 52.2969C362.863 51.4401 365.262 51.0974 367.833 50.9261C367.661 58.4655 368.175 66.0048 369.375 73.3728C369.717 75.0863 369.889 76.7998 370.917 78.1706C372.288 80.2268 375.029 81.0835 377.428 80.9122C379.998 80.7408 382.226 79.7128 384.282 78.342C385.824 77.3139 387.195 76.1144 388.566 74.915C388.908 75.2577 389.08 75.7717 389.422 76.2858C390.108 78.1706 389.765 80.3981 388.566 82.1116C387.538 83.8251 385.824 85.0246 384.111 86.0527C381.369 87.5948 378.285 88.7942 375.543 90.165C372.63 91.5358 369.889 93.4207 368.347 96.1623C366.804 98.7325 366.29 101.988 367.147 104.901C368.518 110.042 373.487 113.64 374.858 118.78C375.543 121.865 374.858 125.292 372.802 127.862C371.774 127.862 370.917 127.691 369.889 127.691C366.29 127.519 362.692 127.176 359.265 126.148C357.209 125.634 355.324 124.778 353.268 123.749L353.439 123.407C354.981 117.752 353.61 111.926 351.726 106.443C350.526 102.845 349.155 99.2466 348.299 95.4769C347.785 93.592 347.442 91.5358 347.442 89.651C347.271 84.3392 348.641 79.37 350.012 74.2296C351.04 70.8026 352.068 67.2042 352.582 63.6059C352.925 61.7211 352.925 59.8362 353.782 58.1227C353.782 57.9514 353.782 57.7801 353.782 57.7801Z" fill="#FAB423"/>
<path d="M377.771 215.593C378.799 218.163 378.114 220.905 377.085 223.303C375.543 226.73 372.973 229.643 369.889 231.699C372.116 225.36 374.001 219.191 375.372 212.68L375.543 212.508C376.571 213.365 377.428 214.393 377.771 215.593Z" fill="#393B54"/>
<path d="M358.237 307.093C362.349 293.728 364.577 279.677 366.633 265.798H366.804C366.462 268.368 366.976 270.939 368.175 273.337C369.546 275.908 371.945 277.964 373.83 280.191C375.886 282.419 377.599 285.161 377.428 288.073C377.428 290.644 375.886 292.871 374.687 295.099C368.861 305.208 364.406 316.175 361.493 327.484V327.655C359.95 327.826 358.408 327.998 356.866 327.826C355.667 327.655 354.467 327.484 353.611 326.627C352.582 325.77 352.411 324.228 352.582 323.029C352.754 321.658 353.268 320.458 353.782 319.259C355.495 315.147 356.866 311.206 358.237 307.093Z" fill="#F4A958"/>
<path d="M369.717 232.042C369.717 232.214 369.717 232.214 369.717 232.385C369.717 232.556 369.546 232.728 369.546 232.899C365.262 244.893 360.122 256.545 357.723 269.054C356.524 274.879 356.01 280.705 354.639 286.36C353.268 291.672 351.212 296.812 348.984 301.953C343.672 315.147 338.532 328.683 336.818 342.905C335.962 342.22 334.762 341.706 333.563 341.534C331.507 341.02 329.45 340.849 327.223 341.02H327.052C327.052 316.86 342.13 294.756 343.158 270.596C343.33 264.599 342.644 258.259 344.015 252.433C345.386 246.264 348.984 240.781 351.726 235.126C355.838 226.388 358.408 216.963 358.922 207.368C360.465 207.539 362.007 207.711 363.549 207.882C367.319 208.567 371.088 209.595 374.173 211.823C374.515 212.166 374.858 212.337 375.201 212.68L375.029 212.851C373.83 219.362 371.774 225.702 369.546 231.871C369.889 231.871 369.889 231.871 369.717 232.042Z" fill="#F4A958"/>
<path d="M369.889 317.545C371.431 320.801 371.602 324.571 370.917 327.998C370.231 331.425 368.689 334.852 367.319 338.107C365.605 341.877 363.892 345.647 362.349 349.416C360.807 352.843 359.265 356.27 356.866 359.183C353.439 363.124 348.641 365.523 343.844 367.579C341.445 361.582 339.389 355.242 339.046 348.902C343.158 341.02 346.414 332.453 348.47 323.885C349.327 320.458 350.012 316.86 351.554 313.776C352.925 310.863 355.324 308.121 358.408 307.093C357.209 311.205 355.667 315.146 354.125 319.088C353.611 320.287 353.097 321.486 352.925 322.857C352.754 324.228 353.097 325.599 353.953 326.456C354.81 327.312 356.009 327.484 357.209 327.655C358.751 327.826 360.293 327.826 361.835 327.484C362.349 327.484 363.035 327.312 363.549 327.141C364.748 326.798 366.119 326.456 366.976 325.427C367.833 324.399 368.175 323.2 368.689 322C368.861 320.63 369.375 319.088 369.889 317.545Z" fill="#101010"/>
<path d="M348.127 95.4769C342.987 102.331 337.504 108.842 331.335 114.668C330.479 114.497 329.622 114.325 328.765 114.154C325.852 113.64 322.768 113.126 320.198 114.325C317.627 115.525 315.571 118.952 317.285 121.351C318.141 122.721 319.855 123.407 321.568 123.75V123.921C318.141 126.491 314.543 128.89 311.116 131.46C309.06 132.831 307.004 134.373 304.776 135.401C303.577 132.66 301.863 130.261 299.807 128.205C301.349 126.834 302.891 125.292 304.433 123.75C307.518 120.494 310.602 117.067 313.858 113.983C316.428 111.584 319.169 109.356 321.911 107.129C332.877 97.7045 342.473 86.5668 350.012 74.2296C348.47 79.3701 347.099 84.3392 347.442 89.651C347.442 91.5359 347.785 93.5921 348.127 95.4769Z" fill="#F4A958"/>
<path d="M327.394 341.02C329.622 341.02 331.678 341.192 333.734 341.534C334.934 341.706 336.133 342.22 336.99 342.905C337.161 343.076 337.161 343.076 337.332 343.248C338.703 344.619 338.703 346.675 338.875 348.56C338.875 348.731 338.875 348.902 338.875 348.902C339.389 355.414 341.274 361.582 343.672 367.579C344.186 369.122 344.872 370.492 345.557 372.034C346.071 373.234 346.585 374.433 346.585 375.633C346.585 376.147 346.414 376.661 346.243 377.175C342.816 373.919 338.361 371.178 333.734 371.863C330.993 372.377 328.594 374.091 326.195 375.461C323.796 376.832 321.054 378.032 318.313 377.689C317.799 375.29 317.799 372.891 317.97 370.492C318.141 366.037 318.655 361.754 319.169 357.47C319.341 355.928 319.684 354.214 320.369 352.672C321.054 350.102 321.911 347.532 322.596 344.961C322.768 344.619 322.768 344.276 322.939 344.105C323.111 343.59 323.453 343.076 323.796 342.562C324.31 341.363 325.852 341.02 327.394 341.02Z" fill="#101010"/>
<path d="M346.242 377.175C345.728 378.203 344.872 379.06 343.844 379.745C342.301 380.602 340.588 380.945 339.046 381.287C333.391 382.144 327.737 382.144 322.082 381.116C321.226 380.945 320.197 380.773 319.512 380.088C318.998 379.574 318.655 378.717 318.313 378.032C318.313 377.86 318.313 377.86 318.141 377.689C320.883 378.203 323.624 377.004 326.023 375.461C328.422 374.091 330.821 372.377 333.563 371.863C338.189 371.178 342.816 373.919 346.242 377.175Z" fill="#E2E2E2"/>
<path d="M342.816 208.053V208.225C342.816 216.278 342.644 224.332 341.445 232.214C339.046 228.273 337.504 223.989 336.647 219.534C336.133 216.449 335.962 213.022 338.018 210.624C339.046 209.253 340.931 208.396 342.816 208.053Z" fill="#393B54"/>
<path d="M288.669 168.814C292.268 168.814 295.866 168.129 299.122 166.587C294.153 171.385 287.299 174.469 279.931 174.469C264.852 174.469 252.515 162.132 252.515 147.053C252.515 133.859 261.768 122.893 274.105 120.322C268.621 123.235 264.509 128.719 262.624 134.716C260.568 140.713 260.225 147.396 262.624 153.393C264.68 158.362 268.621 162.646 273.248 165.216C277.874 167.615 283.358 168.814 288.669 168.814Z" fill="#D84E09"/>
<path d="M527.983 192.206L493.568 234.056C486.77 239.792 479.122 245.103 474.873 253.176C471.474 259.337 470.625 266.559 467.013 272.508C464.039 277.394 459.578 281.218 455.117 284.829C453.63 285.891 451.93 287.166 450.231 286.741C451.93 282.067 453.417 277.394 455.117 272.508C453.205 271.87 451.293 272.933 449.806 274.207C446.407 276.969 443.858 280.368 441.946 284.192C440.459 287.166 439.609 290.565 437.484 293.114C436.635 294.176 435.573 295.026 434.51 295.876C432.811 296.938 430.686 297.363 428.774 296.513C428.137 296.301 427.712 295.876 427.5 295.451C427.287 295.026 427.287 294.389 427.287 293.964C427.5 291.415 428.562 289.078 429.837 286.953C428.35 288.016 426.65 288.865 425.163 289.715C424.313 290.352 422.826 290.565 422.401 289.715C422.189 289.29 422.401 288.653 422.614 288.016C429.199 272.933 442.795 262.098 453.842 249.777C458.303 244.678 462.552 239.155 466.588 233.632C482.309 212.813 497.817 191.994 513.537 170.963C516.511 172.45 519.485 173.724 522.46 175.211C526.283 176.911 529.895 178.61 533.506 180.735C532.019 184.771 530.107 188.595 527.983 192.206Z" fill="#F4A958"/>
<path d="M519.485 334.54C530.532 339.426 543.066 340.913 555.175 341.975C550.714 351.535 545.828 360.882 540.517 370.017C538.605 373.416 536.481 377.027 533.294 379.364C529.47 382.126 524.159 382.763 519.698 381.488C515.024 380.214 511.2 377.027 508.439 372.991C506.314 370.017 505.04 366.618 503.34 363.431C501.216 359.395 498.454 355.571 495.905 351.747L497.18 351.11C498.454 347.711 500.366 344.524 502.703 341.762C505.89 337.726 509.926 334.54 514.599 332.203C516.299 333.053 517.998 333.69 519.485 334.54Z" fill="#F4A958"/>
<path d="M573.445 56.6711C573.445 56.0338 573.869 55.3965 574.082 54.7592C574.932 52.6348 577.268 50.9353 579.393 51.5726C580.88 52.2099 581.73 53.9094 581.73 55.6089C581.73 57.3084 581.517 59.0079 581.517 60.7074C581.517 61.7696 581.942 62.8318 582.792 63.4691C583.854 64.3189 585.553 63.894 586.616 63.0442C587.678 62.1945 588.528 61.1323 589.377 60.2825C591.502 58.1582 594.263 56.8835 597.238 56.6711C600.637 56.6711 604.036 57.9457 607.435 57.096C610.834 56.2462 613.17 53.4846 616.569 52.6348C619.119 52.2099 621.668 52.8472 624.217 53.0597C624.642 53.0597 625.279 53.0597 625.704 53.0597C624.642 59.4328 622.305 65.8059 619.968 71.7542C618.694 74.7283 617.632 77.9149 616.357 80.889C616.357 81.1015 616.145 81.3139 616.145 81.5263C614.233 86.1999 612.321 91.086 608.922 94.6975C605.31 98.5213 599.574 100.858 594.688 99.1586C593.414 98.7338 592.352 98.0964 591.502 97.4591C586.191 97.4591 581.092 96.1845 576.631 93.6353C576.419 93.4228 576.206 93.4228 575.994 93.2104C575.994 92.9979 575.994 92.7855 575.994 92.3606C576.419 90.0238 577.056 87.687 577.693 85.3502C578.543 81.7387 579.393 78.1273 579.18 74.3034C578.968 72.6039 578.756 71.1169 578.756 69.4174C578.756 68.7801 578.756 68.1428 578.331 67.5054C578.118 67.0806 577.693 66.6557 577.268 66.4433C574.082 64.3189 572.595 60.2825 573.445 56.6711Z" fill="#F4A958"/>
<path d="M598.3 237.88C584.066 236.181 570.046 231.507 558.999 222.372C560.698 221.735 562.185 220.885 563.885 220.248C571.533 217.062 580.03 215.999 588.315 217.062C595.326 218.124 602.124 220.673 609.134 222.16H609.347C618.269 224.072 627.404 224.072 636.326 224.497C638.026 224.497 639.725 224.709 641.425 225.134V225.559C641.425 229.17 641.637 232.782 642.062 236.393C627.616 238.305 612.958 239.58 598.3 237.88Z" fill="#F4A958"/>
<path d="M659.907 326.255C661.394 351.535 662.881 376.602 664.368 401.67H663.306C661.819 401.245 660.332 401.033 658.845 400.608C656.295 399.97 653.746 399.333 651.197 399.121C649.71 398.908 648.223 398.908 646.948 398.908C642.274 398.908 637.601 400.183 633.565 402.307C633.352 398.908 632.715 395.722 631.865 392.323C627.829 376.602 623.368 361.094 618.694 345.799C618.269 344.524 618.057 343.462 617.632 342.187C616.357 337.939 615.082 333.69 613.595 329.654C618.906 325.192 625.917 323.493 633.14 322.431C633.352 322.431 633.564 322.431 633.777 322.431C635.689 322.218 637.601 322.006 639.513 322.006C646.311 321.581 653.534 321.581 659.694 324.555C659.907 325.192 659.907 325.617 659.907 326.255Z" fill="#F4A958"/>
<path d="M726.612 54.7592C720.451 54.9716 714.503 53.9095 708.767 51.5726C706.43 50.5105 704.094 49.4483 701.544 49.4483C697.296 49.4483 693.897 52.4224 690.923 55.3965L648.647 95.7597L648.222 95.9721C648.01 95.5472 647.798 95.1224 647.585 94.6975C645.886 90.8736 643.974 87.0497 641.849 83.2258C640.575 80.6766 639.088 78.1273 637.813 75.7905L638.238 75.5781C646.736 67.9303 655.445 60.2826 665.855 55.3965C668.829 53.9095 671.803 52.8473 674.565 50.9353C681.363 46.4741 685.612 38.8264 693.047 35.6398C697.508 33.7279 702.394 33.7279 707.068 32.6657C711.741 31.6035 716.203 29.904 720.239 27.3547C721.938 26.2925 724.488 25.4428 725.125 27.3547C725.337 27.7796 725.125 28.2045 725.125 28.6294C724.275 32.6657 722.576 36.4896 720.026 39.6761C718.964 41.1632 717.69 42.4378 717.265 44.1373C717.052 44.5622 717.052 44.9871 717.052 45.6244C717.477 49.8731 724.7 50.5105 726.612 54.7592Z" fill="#F4A958"/>
<path d="M664.368 401.67H663.306C661.819 401.245 660.332 401.033 658.845 400.608C656.295 399.97 653.746 399.333 651.197 399.121C649.71 398.908 648.223 398.908 646.948 398.908C642.274 398.908 637.601 400.183 633.565 402.307C633.352 398.908 632.715 395.722 631.865 392.323C627.829 376.602 623.368 361.094 618.694 345.799C618.269 344.524 618.057 343.462 617.632 342.187C616.357 337.939 615.082 333.69 613.595 329.654C618.906 325.192 625.917 323.493 633.14 322.431C633.352 322.431 633.564 322.431 633.777 322.431C635.689 322.218 637.601 322.006 639.513 322.006C646.311 321.581 653.534 321.581 659.694 324.555C659.907 324.98 659.907 325.617 659.907 326.255C661.394 351.535 662.881 376.602 664.368 401.67Z" fill="#E5913C"/>
<path d="M648.435 95.5473L648.01 95.7597C647.798 95.3348 647.585 94.91 647.585 94.4851C645.886 90.6612 643.974 86.8373 641.849 83.0135C648.86 79.402 655.233 74.3035 660.544 68.3552C663.518 65.1687 666.067 61.5572 669.466 59.008C674.565 55.1841 681.15 53.9095 686.886 50.9354C691.135 48.5985 694.959 45.412 699.42 43.5C704.944 41.1632 711.529 41.3757 716.84 43.7125C716.628 44.1374 716.628 44.5622 716.628 45.1995C717.052 49.8732 724.275 50.298 726.187 54.5468C720.027 54.7592 714.078 53.697 708.343 51.3602C706.006 50.298 703.669 49.2358 701.12 49.2358C696.871 49.2358 693.472 52.21 690.498 55.1841L648.435 95.5473Z" fill="#E5913C"/>
<path d="M724.913 26.9299C725.125 27.3548 724.913 27.7796 724.913 28.2045C724.063 32.2408 722.363 36.0647 719.814 39.2513C718.752 40.7383 717.477 42.2254 717.052 43.7125C711.529 41.3757 705.156 41.1632 699.633 43.5C695.171 45.412 691.348 48.5985 687.099 50.9353C681.363 53.9095 674.777 55.1841 669.679 59.008C666.28 61.5572 663.731 65.1686 660.756 68.3552C655.446 74.3035 649.072 79.402 642.062 83.0134C640.787 80.4642 639.3 78.1274 638.026 75.5781L638.451 75.3657C646.948 67.7179 655.658 60.0702 666.067 55.1841C669.042 53.697 672.016 52.6348 674.777 50.7229C681.575 46.2617 685.824 38.6139 693.259 35.4274C697.721 33.5154 702.607 33.5155 707.28 32.4533C711.954 31.6035 716.415 29.6916 720.451 26.9299C721.726 26.0801 724.488 25.2304 724.913 26.9299Z" fill="#F4A958"/>
<path d="M659.907 326.255C661.394 351.535 662.881 376.602 664.368 401.67H663.306C661.819 401.245 660.332 401.033 658.844 400.608C656.295 399.97 653.746 399.333 651.197 399.121C649.71 398.908 648.435 398.908 646.948 398.908C644.824 390.623 641.637 382.338 641.425 373.841C641.212 364.281 644.611 354.934 643.549 345.586C642.699 337.089 638.238 329.441 633.564 322.431C635.476 322.218 637.388 322.006 639.3 322.006C646.098 321.581 653.321 321.581 659.482 324.555C659.907 325.192 659.907 325.617 659.907 326.255Z" fill="#F4A958"/>
<path d="M609.346 222.372C618.269 224.284 627.404 224.284 636.326 224.709C638.026 224.709 639.725 224.922 641.425 225.134V225.559C641.425 229.17 641.637 232.782 642.062 236.393C627.404 238.093 612.745 239.367 598.3 237.668C584.066 235.968 570.046 231.295 559.211 222.16C560.911 221.523 562.398 220.673 564.097 220.036C571.745 216.849 580.242 215.787 588.528 216.849C595.538 217.911 602.336 220.461 609.346 221.948C609.134 222.16 609.346 222.16 609.346 222.372Z" fill="#F4A958"/>
<path d="M591.077 97.6717C588.74 95.9722 586.828 93.4229 585.341 90.8737C582.58 86.4125 580.243 81.7389 579.18 76.6404C578.968 76.0031 578.968 75.3657 578.756 74.7284C578.543 73.0289 578.331 71.5419 578.331 69.8424C578.331 69.205 578.331 68.5677 577.906 67.9304C577.693 67.5055 577.269 67.0807 576.844 66.8682C574.082 64.5314 572.807 60.4951 573.445 56.8837C573.657 56.2464 573.87 55.609 574.082 54.9717C574.932 52.8473 577.269 50.9354 579.18 51.7851C580.668 52.4225 581.517 54.122 581.517 55.8215C581.517 57.521 581.305 59.2205 581.305 60.92C581.305 61.9822 581.73 63.0444 582.58 63.6817C583.642 64.5314 585.341 64.1066 586.403 63.2568C587.466 62.4071 588.315 61.3448 589.165 60.2827C591.289 58.1583 594.051 56.8837 597.025 56.8837C600.424 56.6712 603.823 58.1583 607.01 57.3085C610.409 56.4588 612.746 53.6971 616.145 52.8473C618.694 52.4225 621.243 53.0598 623.792 53.2722C624.217 53.2722 624.855 53.2722 625.279 53.2722C624.217 59.6454 621.88 66.0185 619.544 71.9667C618.269 74.9409 617.207 78.1274 615.932 81.1016C615.932 81.314 615.72 81.5264 615.72 81.7389C613.808 86.4125 611.896 91.2986 608.284 94.91C604.673 98.7339 598.937 101.071 594.051 99.3712C593.201 99.1588 592.139 98.5214 591.077 97.6717Z" fill="#F4A958"/>
<path d="M555.387 341.975C550.926 351.535 546.04 360.882 540.729 370.017C538.817 373.416 536.693 377.027 533.506 379.364C529.682 382.126 524.371 382.763 519.91 381.488C515.237 380.214 511.413 377.027 508.651 372.991C506.739 370.017 505.252 366.618 503.765 363.431C501.641 359.395 498.879 355.571 496.33 351.747L497.604 351.11C498.879 347.711 500.791 344.524 503.128 341.762C503.765 344.524 504.615 347.286 505.465 349.835C505.889 350.897 506.314 351.959 507.376 352.384C508.863 352.809 510.138 351.322 510.988 350.047C513.962 344.949 516.936 339.85 519.91 334.752C530.745 339.426 543.066 340.913 555.387 341.975Z" fill="#F4A958"/>
<path d="M493.568 234.057C486.77 239.792 479.122 245.103 474.873 253.176C471.474 259.337 470.625 266.56 467.013 272.508C464.039 277.394 459.578 281.218 455.117 284.829C453.63 285.891 451.93 287.166 450.231 286.741C451.93 282.068 453.417 277.394 455.117 272.508C453.417 271.87 451.293 272.933 449.806 274.207C446.407 276.969 443.858 280.368 441.946 284.192C440.459 287.166 439.609 290.565 437.697 293.114C436.847 294.176 435.785 295.026 434.723 295.876L434.298 295.451C437.272 284.829 443.645 275.269 452.143 268.259C455.754 265.285 460.003 262.736 462.977 258.912C467.226 253.601 468.925 246.803 471.899 240.642C478.06 227.896 489.532 218.974 499.941 209.626C510.351 200.279 520.548 189.232 522.672 175.424C526.496 177.123 530.107 178.823 533.719 180.947C532.019 184.771 530.107 188.382 528.195 191.994L493.568 234.057Z" fill="#E5913C"/>
<path d="M510.563 349.835C509.713 351.11 508.439 352.809 506.952 352.172C505.889 351.747 505.465 350.685 505.04 349.623C504.19 346.861 503.34 344.312 502.703 341.55C505.889 337.514 509.926 334.327 514.599 331.99C516.299 332.84 517.786 333.69 519.485 334.54L510.563 349.835Z" fill="#E5913C"/>
<path d="M513.537 171.388C516.511 172.875 519.485 174.149 522.46 175.636C520.335 189.445 510.138 200.491 499.729 209.839C489.319 219.186 477.848 228.321 471.687 240.855C468.713 247.015 467.226 253.813 462.764 259.124C459.79 262.736 455.542 265.285 451.93 268.472C443.433 275.482 437.06 285.042 434.085 295.664L434.51 296.088C432.811 297.151 430.686 297.576 428.774 296.726C428.137 296.513 427.712 296.088 427.5 295.664C427.287 295.239 427.287 294.814 427.287 294.176C427.5 291.627 428.562 289.29 429.837 287.166C428.35 288.016 426.65 289.078 425.163 289.928C424.313 290.353 422.826 290.777 422.401 289.928C422.189 289.503 422.401 288.866 422.614 288.228C429.199 273.145 442.795 262.311 453.842 249.989C458.303 244.891 462.552 239.368 466.588 233.844C482.309 213.025 498.029 192.206 513.537 171.388Z" fill="#F4A958"/>
<path d="M724.913 26.9299C725.125 27.3548 724.913 27.7796 724.913 28.2045C724.063 32.2408 722.363 36.0647 719.814 39.2513C718.752 40.7383 717.477 42.2254 717.052 43.7125C711.529 41.3757 705.156 41.1632 699.633 43.5C695.171 45.412 691.348 48.5985 687.099 50.9353C681.363 53.9095 674.777 55.1841 669.679 59.008C666.28 61.5572 663.731 65.1686 660.756 68.3552C655.446 74.3035 649.072 79.402 642.062 83.0134C640.787 80.4642 639.3 78.1274 638.026 75.5781L638.451 75.3657C646.948 67.7179 655.658 60.0702 666.067 55.1841C669.042 53.697 672.016 52.6348 674.777 50.7229C681.575 46.2617 685.824 38.6139 693.259 35.4274C697.721 33.5154 702.607 33.5155 707.28 32.4533C711.954 31.6035 716.415 29.6916 720.451 26.9299C721.726 26.0801 724.488 25.2304 724.913 26.9299Z" fill="#F4A958"/>
<path d="M694.109 513.412C694.746 518.086 694.534 523.821 690.498 526.583C688.161 528.07 685.187 528.283 682.425 528.283C666.917 528.495 651.197 528.92 635.689 529.132C633.777 529.132 631.652 529.132 630.59 527.433C629.741 526.371 629.953 524.884 629.953 523.609V523.397H630.378C641.637 524.246 653.109 524.459 663.731 520.422C667.342 519.148 670.741 517.236 674.353 515.749C680.513 513.2 687.311 512.137 694.109 512.35C693.897 512.987 693.897 513.2 694.109 513.412Z" fill="#E2E2E2"/>
<path d="M658.844 487.07C659.694 487.495 660.332 487.92 661.181 488.344C663.943 491.531 664.793 496.205 667.554 499.391C672.441 505.764 681.575 506.189 689.436 507.889C690.71 508.314 692.197 508.738 693.047 509.801C693.684 510.65 694.109 511.713 694.109 512.775C687.311 512.562 680.726 513.625 674.353 516.174C670.741 517.661 667.342 519.36 663.731 520.847C653.109 524.884 641.637 524.671 630.378 523.822H629.953C630.59 512.35 632.29 500.878 635.264 489.832C635.476 489.832 635.689 489.832 635.901 489.832C638.663 490.044 641.637 489.407 644.186 488.344C645.036 487.92 645.673 487.707 646.523 487.282C647.585 486.645 648.648 486.22 649.922 486.008C652.684 484.945 655.87 485.583 658.844 487.07Z" fill="#393B54"/>
<path d="M665.218 415.266C665.643 420.577 665.855 425.888 665.643 431.199C665.43 438.634 664.156 445.857 662.881 453.08C661.181 464.339 659.694 475.598 658.632 486.857C655.658 485.37 652.472 484.733 649.497 485.583C648.223 485.795 647.16 486.433 646.098 486.857C643.761 475.173 643.337 463.277 644.611 451.593C646.311 436.51 650.772 421.639 648.648 406.768C648.223 404.007 647.585 401.457 646.948 398.696C648.435 398.696 649.922 398.696 651.197 398.908C653.746 399.121 656.295 399.758 658.845 400.395C660.332 400.82 661.819 401.033 663.306 401.457H664.368C664.793 406.344 665.005 410.805 665.218 415.266Z" fill="white"/>
<path d="M659.907 326.255C661.394 351.535 662.881 376.602 664.368 401.67H663.306C661.819 401.245 660.332 401.033 658.844 400.608C656.295 399.97 653.746 399.333 651.197 399.121C649.71 398.908 648.435 398.908 646.948 398.908C644.824 390.623 641.637 382.338 641.425 373.841C641.212 364.281 644.611 354.934 643.549 345.586C642.699 337.089 638.238 329.441 633.564 322.431C635.476 322.218 637.388 322.006 639.3 322.006C646.098 321.581 653.321 321.581 659.482 324.555C659.907 325.192 659.907 325.617 659.907 326.255Z" fill="#F4A958"/>
<path d="M555.387 341.975C543.278 340.913 530.745 339.213 519.698 334.54C517.998 333.69 516.299 333.053 514.812 331.99C513.962 331.565 513.112 330.928 512.05 330.291C514.812 327.104 516.936 323.28 518.636 319.457C521.397 313.721 523.097 307.56 524.584 301.187C526.921 290.777 527.983 280.156 530.32 269.746C531.382 265.285 532.657 260.824 534.993 257C537.33 252.964 540.942 249.352 543.703 245.528C548.802 238.305 551.351 229.383 557.299 222.797C557.937 222.585 558.786 222.373 559.424 221.948C570.47 230.87 584.491 235.756 598.512 237.456C613.17 239.155 627.829 237.881 642.274 236.181C642.274 237.031 642.487 237.668 642.487 238.305C646.523 267.622 660.969 295.451 661.394 325.192C660.756 324.768 660.119 324.555 659.482 324.13C653.321 321.156 646.098 321.156 639.3 321.581C637.388 321.793 635.476 321.793 633.564 322.006C633.352 321.581 633.14 321.369 632.927 320.944C633.14 317.12 635.264 313.508 637.601 310.322C640.362 306.923 643.549 303.736 645.461 299.912C645.886 299.063 646.311 297.788 645.886 296.938C645.249 295.664 643.761 295.239 642.274 295.239C639.725 295.026 636.963 295.026 634.627 293.964C632.29 292.902 629.953 290.778 629.953 288.228C629.953 286.741 630.378 285.467 631.015 284.192C633.14 278.881 634.839 273.57 636.114 268.047C637.813 261.249 638.875 253.601 635.052 247.653C631.015 256.363 626.554 265.71 618.057 270.808C619.544 267.197 620.818 263.373 621.031 259.337C621.243 255.3 619.968 251.264 617.419 248.29C616.569 247.44 615.295 246.59 614.233 247.228C613.808 247.653 613.383 248.078 613.17 248.715C608.709 259.762 605.948 271.233 602.124 282.492C599.787 289.503 596.813 296.513 592.776 302.886C590.44 306.498 587.89 310.109 584.916 313.296C581.942 316.482 578.756 319.032 575.781 322.006C570.683 327.104 566.222 332.84 562.823 339.001C562.398 339.851 561.761 340.913 560.911 341.338C560.061 341.763 558.999 341.763 557.937 341.55C557.299 342.187 556.237 342.187 555.387 341.975Z" fill="#BE1E2D"/>
<path d="M557.299 165.439C556.45 167.564 555.6 169.476 554.963 171.6C553.688 175.424 552.413 179.248 550.501 182.647C549.014 185.408 546.89 187.958 544.341 189.657C541.367 186.258 537.755 183.496 533.719 181.16C530.32 179.035 526.496 177.336 522.672 175.636C519.698 174.149 516.724 172.875 513.75 171.387C513.537 171.387 513.537 171.175 513.325 171.175C512.687 170.75 511.838 170.325 511.838 169.688C511.838 169.263 512.05 168.838 512.262 168.626C521.397 153.118 530.32 137.822 539.455 122.314C544.128 114.454 548.802 106.594 554.75 99.796C560.698 93.2104 568.346 87.6871 577.056 85.7751C576.419 88.1119 575.781 90.4487 575.356 92.7856C575.356 92.998 575.356 93.4229 575.356 93.6353C575.569 93.8478 575.781 94.0602 575.994 94.0602C580.667 96.6095 585.766 97.8841 590.864 97.8841C591.927 98.7338 592.989 99.1587 594.051 99.5836C598.937 101.283 604.673 98.9463 608.284 95.1224C611.683 91.5109 613.808 86.6249 615.72 81.9513C622.093 79.402 628.466 76.8527 635.052 74.3035C635.476 74.0911 635.901 73.8786 636.326 74.091C636.751 74.3035 636.963 74.5159 637.176 74.9408C637.388 75.1533 637.601 75.5781 637.601 75.7906C639.088 78.1274 640.362 80.6766 641.637 83.2259C643.549 87.0497 645.461 90.8736 647.373 94.6975C647.585 95.1224 647.798 95.5473 647.798 95.9721C648.01 96.6094 648.01 97.0343 648.01 97.6716C647.798 98.7338 646.948 99.796 646.098 100.433C643.337 103.407 640.787 106.594 638.875 110.205C637.601 112.542 636.326 115.304 636.114 118.066C635.689 122.952 637.813 127.625 639.3 132.087C641.425 138.672 642.487 145.683 641.849 152.693C641.425 157.791 640.362 162.678 640.362 167.776C640.362 175.211 642.487 182.647 644.399 189.87C647.16 201.341 648.86 213.025 649.285 224.922C649.497 228.108 649.285 231.932 647.798 234.694C648.86 232.357 647.798 229.171 645.673 227.471C644.399 226.409 642.699 225.772 641 225.559C639.3 225.134 637.601 225.134 635.901 225.134C626.766 224.709 617.844 224.709 608.922 222.797C609.559 222.16 609.984 221.735 610.621 221.098C613.595 217.911 616.994 213.45 615.507 209.201C614.233 205.802 610.196 203.89 609.559 200.279C609.134 196.88 612.321 193.693 612.108 190.294C612.108 186.046 607.435 183.496 603.186 182.859C598.937 182.222 594.688 182.859 590.652 181.16C590.015 180.735 589.165 180.31 588.74 179.673C587.89 178.186 589.165 176.274 590.44 174.999C595.113 170.113 599.999 165.227 605.098 160.766C608.072 158.004 611.471 154.605 610.409 150.781C609.771 148.444 607.859 146.745 606.797 144.833C603.611 139.522 606.372 132.724 609.134 127.2C611.896 121.677 614.87 115.304 612.533 109.568C612.108 108.718 611.683 107.869 610.621 107.656C609.771 107.656 609.134 108.081 608.497 108.506C603.398 112.542 598.3 116.579 593.201 120.615C586.828 125.713 580.455 130.812 574.932 136.76C567.709 144.62 561.76 154.605 557.299 165.439Z" fill="#24EEE1"/>
<path d="M648.86 406.981C650.984 421.852 646.523 436.935 644.824 451.805C643.549 463.489 643.974 475.386 646.311 487.07C645.461 487.495 644.824 487.92 643.974 488.132C641.425 489.194 638.45 489.832 635.689 489.619C636.326 471.562 635.264 453.505 632.502 435.66C631.652 430.349 630.803 425.038 631.228 419.727C631.652 413.991 633.777 408.68 633.777 402.945C633.777 402.732 633.777 402.52 633.777 402.307C637.813 400.183 642.487 398.908 647.16 398.908C647.798 401.67 648.435 404.219 648.86 406.981Z" fill="#E2E2E2"/>
<path d="M642.274 236.606C641.849 232.994 641.637 229.383 641.637 225.772V225.347C643.336 225.772 644.824 226.196 646.311 227.259C648.435 228.958 649.497 232.145 648.435 234.481C648.223 235.119 647.798 235.544 647.16 236.181C645.673 237.243 643.549 237.668 642.699 239.155C642.487 238.093 642.274 237.243 642.274 236.606Z" fill="#101010"/>
<path d="M633.14 321.581C633.14 322.006 633.14 322.218 633.14 322.643C626.129 323.493 618.906 325.405 613.595 329.866C612.746 330.503 612.108 331.141 611.259 331.99C610.621 332.84 609.772 333.69 609.772 334.752C609.772 336.239 610.834 337.301 612.108 338.364C613.808 339.851 615.507 341.125 617.207 342.612L617.632 342.4C618.057 343.674 618.269 344.737 618.694 346.011L618.057 346.224C611.684 342.4 605.31 337.939 602.336 331.141C601.062 328.167 600.424 324.98 599.787 321.793C598.3 315.633 596.388 309.684 593.626 303.949L593.201 303.736C597.025 297.363 599.999 290.353 602.549 283.342C606.372 272.083 609.347 260.611 613.595 249.565C613.808 248.927 614.02 248.502 614.658 248.077C615.72 247.44 616.994 248.29 617.844 249.14C620.606 252.114 621.668 256.15 621.456 260.186C621.243 264.223 619.968 268.047 618.481 271.658C626.766 266.56 631.228 257.425 635.476 248.502C639.513 254.238 638.238 262.098 636.539 268.896C635.052 274.42 633.352 279.731 631.44 285.042C631.015 286.316 630.378 287.803 630.378 289.078C630.378 291.627 632.715 293.752 635.052 294.814C637.388 295.876 640.15 295.876 642.699 296.088C644.186 296.301 645.674 296.513 646.311 297.788C646.736 298.85 646.311 299.912 645.886 300.762C643.974 304.586 640.787 307.773 638.026 311.172C635.476 313.933 633.352 317.757 633.14 321.581Z" fill="#9F1926"/>
<path d="M609.346 222.372C618.269 224.284 627.404 224.284 636.326 224.709C638.026 224.709 639.725 224.922 641.425 225.134V225.559C641.425 229.17 641.637 232.782 642.062 236.393C627.404 238.093 612.745 239.367 598.3 237.668C584.066 235.968 570.046 231.295 559.211 222.16C560.911 221.523 562.398 220.673 564.097 220.036C571.745 216.849 580.242 215.787 588.528 216.849C595.538 217.911 602.336 220.461 609.346 221.948C609.134 222.16 609.346 222.16 609.346 222.372Z" fill="#F4A958"/>
<path d="M625.704 53.2722C625.279 53.2722 624.642 53.2722 624.217 53.2722C621.668 53.0597 619.119 52.21 616.569 52.8473C613.17 53.4846 610.834 56.4587 607.435 57.3085C604.248 58.1582 600.637 56.6712 597.45 56.8836C594.476 57.096 591.502 58.3706 589.59 60.2826C588.74 61.3448 587.89 62.407 586.828 63.2567C585.766 64.1065 584.066 64.3189 583.004 63.6816C582.155 63.0443 581.73 61.9821 581.73 60.9199C581.517 59.2204 581.942 57.5209 581.942 55.8214C581.942 54.1219 581.092 52.21 579.605 51.7851C577.481 50.9353 575.357 52.8473 574.507 54.9716C574.294 55.609 574.082 56.2463 573.869 56.8836H573.657C571.32 54.7592 570.045 51.1478 570.683 47.9612C571.32 44.7747 573.445 42.013 574.719 38.8264C576.419 35.215 576.631 30.9662 578.331 27.1423C580.88 21.1941 587.041 16.9453 593.414 16.308C596.388 16.0956 599.574 16.7329 602.548 17.1578C605.735 17.7951 608.922 18.2199 612.108 18.8572C615.72 19.4946 619.544 20.3443 621.88 23.106C625.279 27.3548 623.155 33.9403 625.917 38.614C626.979 40.5259 628.891 42.013 630.378 43.9249C631.865 45.6244 632.715 48.1736 631.865 50.298C629.953 52.4224 627.829 53.2722 625.704 53.2722Z" fill="#101010"/>
<path d="M617.632 342.4L617.207 342.612C615.507 341.125 613.808 339.851 612.108 338.363C611.046 337.514 609.771 336.239 609.771 334.752C609.771 333.69 610.409 332.84 611.259 331.99C611.896 331.141 612.746 330.503 613.595 329.866C614.87 333.902 616.357 338.151 617.632 342.4Z" fill="#393B54"/>
<path d="M618.694 474.961C618.694 495.78 601.911 512.562 581.092 512.562H580.88C560.273 512.35 543.491 495.567 543.491 474.961C543.491 454.142 560.273 437.359 581.092 437.359C588.103 437.359 594.476 439.271 599.999 442.458C611.259 449.043 618.694 461.152 618.694 474.961Z" fill="white"/>
<path d="M599.999 442.458C590.865 445.22 582.579 451.168 577.056 459.028C569.621 469.65 567.072 483.671 570.471 496.205C572.17 502.578 575.781 508.526 580.668 512.775C560.061 512.562 543.279 495.78 543.279 475.173C543.279 454.354 560.061 437.572 580.88 437.572C587.89 437.359 594.476 439.271 599.999 442.458Z" fill="#E2E2E2"/>
<path d="M544.128 189.445C544.341 189.657 544.341 189.657 544.553 189.87C539.455 191.994 533.506 192.844 527.983 192.206C529.895 188.595 531.807 184.984 533.506 181.16C537.543 183.496 541.154 186.046 544.128 189.445Z" fill="#101010"/>
<path d="M555.387 341.975C550.926 351.535 546.04 360.882 540.729 370.017C538.817 373.416 536.693 377.027 533.506 379.364C529.682 382.126 524.371 382.763 519.91 381.488C515.237 380.214 511.413 377.027 508.651 372.991C506.739 370.017 505.252 366.618 503.765 363.431C501.641 359.395 498.879 355.571 496.33 351.747L497.604 351.11C498.879 347.711 500.791 344.524 503.128 341.762C503.765 344.524 504.615 347.286 505.465 349.835C505.889 350.897 506.314 351.959 507.376 352.384C508.863 352.809 510.138 351.322 510.988 350.047C513.962 344.949 516.936 339.85 519.91 334.752C530.745 339.426 543.066 340.913 555.387 341.975Z" fill="#F4A958"/>
<path d="M513.537 171.388C516.511 172.875 519.485 174.149 522.46 175.636C520.335 189.445 510.138 200.491 499.729 209.839C489.319 219.186 477.848 228.321 471.687 240.855C468.713 247.015 467.226 253.813 462.764 259.124C459.79 262.736 455.542 265.285 451.93 268.472C443.433 275.482 437.06 285.042 434.085 295.664L434.51 296.088C432.811 297.151 430.686 297.576 428.774 296.726C428.137 296.513 427.712 296.088 427.5 295.664C427.287 295.239 427.287 294.814 427.287 294.176C427.5 291.627 428.562 289.29 429.837 287.166C428.35 288.016 426.65 289.078 425.163 289.928C424.313 290.353 422.826 290.777 422.401 289.928C422.189 289.503 422.401 288.866 422.614 288.228C429.199 273.145 442.795 262.311 453.842 249.989C458.303 244.891 462.552 239.368 466.588 233.844C482.309 213.025 498.029 192.206 513.537 171.388Z" fill="#F4A958"/>
<path d="M509.076 309.897C512.263 313.083 516.299 315.845 518.636 319.669C516.936 323.493 514.599 327.104 512.05 330.503C512.9 331.141 513.75 331.565 514.812 332.203C510.351 334.54 506.314 337.939 502.915 341.762C501.216 334.964 499.516 327.954 496.967 321.368C493.143 312.021 487.195 303.524 485.708 293.539C486.345 292.689 486.77 292.052 487.407 291.202C488.47 289.928 489.532 288.865 491.019 288.441C492.931 288.016 494.843 288.865 496.117 290.353C497.392 291.627 498.242 293.539 499.091 295.026C499.516 295.876 499.941 296.726 500.366 297.575C502.49 302.037 505.465 306.285 509.076 309.897Z" fill="#E2E2E2"/>
<path d="M485.495 293.539C481.884 298.638 479.76 304.798 478.91 310.959C480.184 311.596 481.034 312.871 481.671 314.146C481.884 314.783 482.309 315.42 482.521 316.057C476.998 321.156 470.2 324.767 462.764 326.679C460.64 327.317 457.878 327.529 456.391 325.83C455.754 325.192 455.542 324.13 455.329 323.28C453.63 314.146 458.941 305.223 465.314 298.638C471.687 292.052 479.547 286.529 484.646 279.093C485.283 278.031 486.133 276.969 487.195 276.544C489.319 275.482 491.656 276.969 493.356 278.244C496.33 280.58 499.304 283.13 501.003 286.529C502.703 289.928 502.703 294.389 500.154 297.151L499.516 297.363C499.091 296.513 498.666 295.663 498.242 294.814C497.392 293.114 496.542 291.415 495.267 290.14C493.993 288.865 492.081 287.803 490.169 288.228C488.682 288.653 487.62 289.928 486.558 290.99C486.77 292.052 486.133 292.689 485.495 293.539Z" fill="#101010"/>
<path d="M482.734 316.057C482.521 315.42 482.096 314.783 481.884 314.146C481.247 312.871 480.397 311.384 479.122 310.959C479.972 304.798 482.096 298.638 485.708 293.539C487.195 303.311 493.143 312.021 496.967 321.368C499.729 327.954 501.216 334.964 502.915 341.762C500.579 344.524 498.667 347.711 497.392 351.11L496.117 351.747C494.205 348.773 492.293 345.799 490.806 342.4C486.983 334.115 486.345 324.555 482.734 316.057Z" fill="white"/>
<path d="M128.192 119.742C122.069 103.332 119.62 84.4719 126.723 68.3065H126.968C127.213 67.8166 127.458 67.5717 127.703 67.3267C128.927 71.4905 132.111 74.9196 135.785 76.879C139.459 79.0834 143.868 80.0631 148.277 80.3081C151.216 80.553 154.155 80.553 156.849 81.2878C160.523 82.5125 163.463 84.9618 166.157 87.656C166.892 88.3908 167.626 89.1256 168.851 89.3705C171.3 89.6154 172.525 86.1864 174.974 86.1864C177.179 86.1864 178.158 89.3705 177.913 91.8198C177.424 96.4735 176.199 101.372 172.77 104.801C171.055 106.761 168.851 107.985 166.892 109.7C166.892 109.945 167.136 110.19 167.136 110.435C169.831 116.068 173.015 121.701 176.444 127.09L175.954 127.335C177.424 142.521 180.118 157.461 184.282 172.157C184.771 173.872 185.261 175.831 184.527 177.301C183.792 178.525 182.567 179.26 181.098 179.75C170.566 184.404 159.054 187.588 147.542 188.323C144.358 188.568 141.174 188.568 137.99 188.568C135.051 188.568 131.866 188.078 129.907 185.873C127.948 183.669 127.948 180.73 127.948 178.036C128.437 164.809 131.132 151.583 136.03 139.336C136.765 139.091 137.745 138.847 138.724 138.847C139.704 138.847 140.929 138.847 141.174 138.112C141.419 137.622 141.174 136.887 141.174 136.397C140.439 133.703 139.704 131.009 138.969 128.315C136.275 128.315 133.826 127.825 131.866 126.11C130.152 124.641 129.172 122.191 128.192 119.742Z" fill="#E5913C"/>
<path d="M331.485 206.448C330.75 210.366 329.771 214.285 328.546 218.204C328.056 219.674 327.566 221.143 326.342 222.123C325.117 223.103 323.158 222.858 322.423 221.388C323.158 223.348 321.198 225.552 319.239 225.552C317.279 225.797 315.32 224.327 314.34 222.613C313.36 220.898 313.115 218.694 312.87 216.735C312.136 209.876 312.136 202.773 313.85 195.915C301.114 186.118 288.132 176.811 274.906 167.748C272.702 166.279 270.497 164.809 268.048 164.074C265.109 163.095 262.17 163.34 258.986 163.34C247.229 163.83 235.227 164.564 223.471 165.789C222.491 165.789 221.266 166.034 220.287 166.769C219.552 167.503 219.307 168.483 219.062 169.463C217.347 176.566 215.633 183.669 214.163 190.527C214.163 190.772 214.408 191.017 214.408 191.262C209.51 188.078 205.591 183.914 202.162 179.26C201.427 178.525 200.937 177.546 200.447 176.811C190.405 162.36 184.037 145.215 182.567 127.825L183.792 127.58C184.037 127.825 184.527 127.825 184.772 128.07C186.731 128.804 188.935 128.804 190.895 128.804C196.038 128.804 201.427 128.804 206.57 128.559C212.939 128.314 219.552 127.825 225.92 128.804C234.982 130.029 243.555 133.458 251.883 136.887C258.986 139.826 266.089 142.521 273.192 145.46C277.6 147.174 282.254 149.134 286.173 151.583C292.296 155.257 297.44 160.4 302.338 165.544C310.421 173.627 318.504 181.954 326.587 190.037C328.301 191.752 330.016 193.466 330.995 195.67C332.465 198.855 331.975 202.774 331.485 206.448Z" fill="#E5913C"/>
<path d="M297.44 462.89C303.073 474.892 310.666 485.914 319.729 495.466C317.034 499.385 313.605 502.814 309.686 505.263C306.992 506.978 304.053 508.447 301.114 509.427C299.889 509.917 298.175 510.162 297.44 509.182C297.195 509.182 296.95 509.182 296.95 509.182C275.641 472.442 246.494 440.601 217.837 409.25C203.141 393.085 188.446 377.164 173.75 360.999C161.993 364.183 150.481 367.612 139.214 372.021C137.255 372.756 135.051 373.735 133.336 375.205C129.417 378.879 129.662 385.247 129.417 390.635C128.192 409.74 115.211 425.906 104.924 442.071C93.9022 459.216 84.8397 477.831 78.7164 497.425C74.3077 496.691 69.654 497.67 65.7351 496.201C64.7554 495.956 63.7756 495.466 63.0408 494.976C60.3466 493.017 58.877 489.588 57.8973 486.404C57.1625 484.689 56.6727 482.974 55.9379 481.26C70.3888 450.154 82.1454 418.068 90.963 385.002C94.392 372.266 97.5761 359.039 105.904 348.997C109.823 344.344 114.721 340.425 119.62 336.751C131.377 327.688 143.378 318.626 155.135 309.563C156.604 308.584 158.074 307.359 159.299 306.379C162.238 304.175 164.932 301.971 168.361 300.746C174.729 298.297 182.077 299.766 188.446 302.705C196.528 306.379 203.141 312.503 208.285 319.606C213.918 327.443 218.082 336.751 220.531 346.058C220.531 346.058 220.776 346.058 220.776 345.813C223.96 343.119 227.145 339.935 229.839 336.751C234.982 348.507 240.126 360.264 245.025 372.021C248.699 380.593 252.372 389.166 258.251 396.514C263.149 402.637 269.028 407.536 273.926 413.659C285.683 427.13 289.847 445.99 297.44 462.89Z" fill="#E5913C"/>
<path d="M213.918 227.511V228.001C213.918 233.145 214.163 238.533 215.878 243.187C216.857 246.126 218.327 249.065 220.286 251.515C216.368 251.515 212.449 252.984 208.775 254.454C196.528 259.597 184.771 265.966 172.525 270.864C165.177 274.048 157.584 276.498 149.746 277.967L148.767 278.212C145.827 264.496 141.419 251.27 136.765 238.044C138.969 237.799 141.174 237.309 143.133 236.329V236.084C145.827 235.594 148.522 235.104 151.216 234.615C166.892 231.92 182.567 228.981 197.998 226.287C197.998 226.532 197.998 226.532 198.243 226.777C203.386 226.777 208.53 227.022 213.918 227.511Z" fill="#E5913C"/>
<path d="M103.454 186.118C86.7991 191.997 69.8989 196.895 52.9986 201.304C48.5899 202.529 44.1811 203.508 39.5274 203.753C36.0984 203.998 32.6694 203.753 29.2404 202.774C26.5461 202.039 23.8519 201.059 22.3823 198.855C20.6678 196.16 21.1577 192.731 21.8925 189.547C23.8519 182.199 27.036 175.096 30.465 167.993C39.2826 149.379 47.8551 130.764 56.6726 112.149C57.8973 109.7 58.877 107.25 59.3669 104.801C59.6118 102.597 59.3669 100.392 59.3669 98.188C59.3669 93.5343 60.3466 88.8806 62.3061 84.7168C63.0409 83.0023 64.2655 81.2878 65.98 81.0428C67.2047 80.7979 68.4293 81.2878 69.654 81.5327C74.0627 83.2472 78.7164 84.7168 83.1252 86.4313C84.8397 86.9212 86.7991 88.1458 86.7991 89.8604C86.7991 92.3097 82.8802 93.2894 82.6353 95.7387C83.86 94.514 86.0644 95.2488 86.7991 96.7184C87.5339 98.188 87.289 99.9025 86.7991 101.617C83.6151 111.414 73.8178 117.538 68.9191 126.6C66.4698 131.009 65.2452 136.152 64.0205 141.051C61.8162 149.868 59.8568 158.441 57.6524 167.259C66.225 162.605 74.7976 158.196 83.3701 153.542C91.4529 149.134 100.025 144.97 109.088 144.725C115.456 144.48 122.314 146.439 128.192 143.99C129.172 143.5 130.152 143.01 130.887 142.521C127.703 152.318 125.253 162.115 122.804 171.912C120.845 179.995 118.885 187.833 117.171 195.915C116.681 197.385 116.436 199.1 116.191 200.814C111.537 196.16 107.373 191.262 103.454 186.118Z" fill="#E5913C"/>
<path d="M333.445 507.468C335.159 509.917 336.874 512.366 336.874 515.305C336.629 519.714 332.465 522.898 328.791 525.592C322.913 529.756 317.279 534.165 312.136 539.554C307.237 544.697 302.828 550.331 296.95 554.249C291.072 558.168 282.744 559.393 277.11 555.229C276.131 554.494 275.396 553.76 274.906 552.535C274.661 552.045 274.661 551.555 274.661 551.31H274.906C279.805 551.8 284.703 552.29 289.357 551.065C296.215 549.351 301.604 544.452 306.012 539.064C310.421 533.675 314.095 527.552 318.749 522.408C323.647 517.02 329.771 512.366 331.485 505.508C332.22 505.998 332.71 506.733 333.445 507.468Z" fill="#E2E2E2"/>
<path d="M319.973 495.221C320.218 494.976 320.218 494.731 320.463 494.486L320.953 494.241C324.872 497.425 328.546 501.099 331.73 505.263C329.771 512.121 323.647 516.775 318.994 522.163C314.34 527.307 310.666 533.43 306.257 538.819C301.848 544.207 296.215 549.106 289.602 550.82C284.948 552.045 280.05 551.555 275.151 551.065H274.906C274.906 548.861 276.865 546.412 278.58 544.697C283.234 539.064 285.438 531.716 286.663 524.613C287.153 520.939 287.642 517.02 289.357 513.836C291.071 511.142 294.011 508.692 297.195 508.937C297.44 508.937 297.685 508.937 297.685 508.937C298.664 509.917 300.134 509.672 301.359 509.182C304.543 508.202 307.237 506.733 309.931 505.018C313.85 502.569 317.279 499.14 319.973 495.221Z" fill="#393B54"/>
<path d="M322.423 221.388C323.157 223.348 321.443 225.552 319.484 225.552C317.524 225.797 315.565 224.327 314.585 222.613C313.605 220.898 313.36 218.694 313.115 216.735C312.381 209.876 312.38 202.773 314.095 195.915C301.359 186.118 288.377 176.811 275.151 167.748C272.947 166.279 270.742 164.809 268.293 164.074C265.354 163.095 262.415 163.34 259.23 163.34C247.474 163.829 235.472 164.564 223.716 165.789C222.736 166.034 221.511 166.034 220.531 166.769C219.797 167.503 219.552 168.483 219.307 169.463C217.592 176.566 215.878 183.669 214.408 190.527C214.408 190.772 214.653 191.017 214.653 191.262C209.754 188.078 205.836 183.914 202.406 179.26C201.672 178.525 201.182 177.546 200.692 176.811C205.101 168.728 209.754 160.89 214.653 153.052C215.633 151.338 216.857 149.623 218.327 148.889C219.797 148.154 221.266 147.909 222.981 147.909C231.553 147.174 240.126 146.684 248.454 147.664C259.475 149.134 270.007 153.787 279.56 159.666C289.112 165.299 297.93 172.402 306.992 179.015C310.176 181.464 313.605 183.669 316.055 186.853C320.218 191.752 322.178 197.875 322.668 204.243C323.402 209.632 322.913 215.51 322.423 221.388Z" fill="#F4A958"/>
<path d="M297.44 508.937C297.195 508.937 296.95 508.937 296.95 508.937C275.641 472.198 246.494 440.356 217.837 409.005C203.141 392.84 188.445 376.919 173.75 360.754C189.67 356.345 205.346 351.936 220.531 345.323C236.452 364.673 240.371 391.37 252.617 413.414C261.925 430.314 276.131 444.275 286.173 460.931C294.745 475.382 300.379 491.547 310.176 505.018C307.482 506.733 304.543 508.202 301.604 509.182C299.889 509.672 298.419 509.917 297.44 508.937Z" fill="#F4A958"/>
<path d="M229.594 336.016C226.9 339.2 223.716 342.384 220.531 345.078C220.531 345.078 220.287 345.078 220.287 345.323C217.837 336.016 213.673 326.709 208.04 318.871C202.896 311.768 196.283 305.645 188.201 301.971C181.832 299.031 174.729 297.562 168.116 300.011C164.687 301.236 161.993 303.44 159.054 305.645C157.584 306.624 156.36 307.849 154.89 308.829C151.706 300.501 150.726 291.439 149.012 282.621C148.767 281.151 148.522 279.927 148.277 278.457L149.257 278.212C157.094 276.743 164.687 274.293 172.035 271.109C184.282 265.966 196.038 259.598 208.285 254.699C211.959 253.229 215.878 251.76 219.797 251.76C221.756 254.699 223.96 257.638 225.92 260.577C232.533 270.13 236.942 280.662 239.881 291.928C240.861 296.337 241.84 300.746 241.84 305.155C242.33 316.422 237.187 327.198 229.594 336.016Z" fill="#BE1E2D"/>
<path d="M231.798 94.5141C232.043 99.6576 234.737 105.046 233.023 109.945C232.043 112.884 229.349 115.088 226.655 116.313C223.716 117.538 220.776 117.782 217.592 117.538C211.224 117.293 204.121 115.088 201.427 109.21C198.243 102.597 201.672 95.0039 201.182 87.656C201.182 86.4313 200.937 84.9618 200.202 83.7371C198.978 81.5327 196.528 80.308 194.079 79.0834C191.63 77.8587 189.18 76.3892 187.711 74.1848C186.486 72.2253 185.751 69.776 184.282 68.3064C181.832 66.1021 178.158 66.347 174.974 67.0818C174.24 65.3673 173.26 63.4078 172.035 61.9382C175.709 61.6933 178.158 58.2643 180.118 55.0802C182.077 51.6511 184.037 47.7323 187.956 46.9975C190.895 46.2627 193.834 47.7322 196.283 49.6917C198.488 51.6511 200.447 54.1004 202.896 56.0599C207.55 59.7339 213.673 60.7136 219.307 62.4281C224.94 64.1426 231.064 66.8369 233.268 72.4703C235.717 79.3283 231.308 87.1661 231.798 94.5141Z" fill="#101010"/>
<path d="M188.445 187.833C169.586 191.507 150.726 195.181 131.866 198.855L130.397 199.1C133.336 211.836 136.52 224.327 140.194 236.819L140.439 236.574C141.174 236.329 142.153 236.329 142.888 236.084V236.329C140.929 237.309 138.724 237.799 136.52 238.044C136.275 237.064 135.785 236.084 135.54 234.859L135.785 234.615C131.621 228.001 124.274 223.838 119.865 217.224C117.415 213.55 115.701 208.897 115.701 204.488C115.701 203.263 115.946 201.794 115.946 200.569C116.191 198.855 116.681 197.385 116.926 195.67C118.885 187.588 120.6 179.505 122.559 171.667C125.008 161.87 127.703 151.828 130.642 142.276C132.601 141.051 134.316 139.826 136.275 139.091C131.376 151.338 128.682 164.564 128.192 177.791C128.192 180.485 128.192 183.669 130.152 185.628C132.111 187.833 135.295 188.078 138.235 188.323C141.419 188.323 144.603 188.323 147.787 188.078C159.299 187.098 170.81 184.159 181.342 179.505C182.567 179.015 184.037 178.28 184.771 177.056C185.506 175.586 185.016 173.627 184.527 171.912C180.363 157.216 177.424 142.276 176.199 127.09L176.689 126.845C176.934 127.09 176.934 127.335 177.179 127.58C177.668 126.355 179.383 125.865 180.853 126.11C181.832 126.355 182.812 126.845 183.792 127.335L182.812 127.58C184.282 145.215 190.65 162.115 200.692 176.566C201.182 177.301 201.917 178.28 202.406 179.015C205.835 183.669 209.754 188.078 214.653 191.017C216.368 196.16 215.633 201.549 215.143 206.937C214.408 213.795 214.163 220.654 214.163 227.267C209.02 226.777 203.631 226.532 198.243 226.532C198.243 226.287 198.243 226.042 197.998 226.042C197.263 222.858 196.528 219.674 195.793 216.735C193.099 207.182 190.895 197.63 188.445 187.833H188.69C188.445 187.833 188.445 187.833 188.445 187.833Z" fill="#FAB423"/>
<path d="M150.971 234.859C148.277 235.349 145.583 235.839 142.889 236.329C142.154 236.574 141.174 236.574 140.439 236.819C154.4 218.694 170.566 202.284 188.446 188.078C190.895 197.63 193.099 207.427 195.549 216.979C196.283 220.164 197.018 223.348 197.753 226.287C182.322 229.226 166.647 231.92 150.971 234.859Z" fill="white"/>
<path d="M154.89 308.829C156.36 307.849 157.584 306.624 159.054 305.644C161.993 303.44 164.687 301.236 168.116 300.011C174.484 297.562 181.832 299.031 188.201 301.97C196.283 305.644 202.896 311.768 208.04 318.871C193.344 330.872 176.689 339.935 159.299 347.038C145.828 352.426 131.132 357.08 122.314 368.592C115.211 377.899 113.497 389.901 110.558 400.923C101.985 434.968 83.6151 465.584 65.4902 495.466V495.711C64.5105 495.466 63.7757 494.976 62.796 494.486C60.1017 492.527 58.6322 489.098 57.6525 485.914C56.9177 484.199 56.4278 482.485 55.693 480.77C70.1439 449.664 81.9006 417.578 90.7182 384.512C94.1472 371.776 97.3312 358.55 105.659 348.507C109.578 343.854 114.476 339.935 119.375 336.261C131.132 326.953 143.133 317.891 154.89 308.829Z" fill="#F4A958"/>
<path d="M140.439 236.574L140.194 236.819C136.52 224.327 133.091 211.836 130.397 199.099L131.867 198.855C150.726 195.181 169.586 191.507 188.446 187.833C188.446 187.833 188.446 187.833 188.446 188.078C170.566 202.284 154.4 218.694 140.439 236.574Z" fill="#E2E2E2"/>
<path d="M184.527 172.157C185.016 173.872 185.506 175.831 184.772 177.301C184.037 178.525 182.812 179.26 181.343 179.75C170.811 184.404 159.299 187.588 147.787 188.323C148.522 188.078 149.257 187.098 149.746 186.363C159.544 168.728 161.748 148.399 163.952 128.315C164.442 122.436 165.177 116.803 165.667 110.924C165.912 110.679 166.157 110.435 166.157 110.19C166.402 109.945 166.647 109.7 166.892 109.455C166.892 109.7 167.137 109.945 167.137 110.19C169.831 116.068 173.015 121.456 176.444 126.845L175.954 127.09C177.424 142.521 180.363 157.461 184.527 172.157Z" fill="#F4A958"/>
<path d="M174.729 67.0817C175.219 68.0615 175.464 69.0412 175.954 69.7759C177.914 74.4296 179.383 79.3283 180.853 84.2269C182.077 88.6357 183.057 93.2893 181.832 97.6981C180.118 104.066 173.995 108.475 167.626 109.945L167.382 110.19C167.382 109.945 167.137 109.7 167.137 109.455C169.096 107.74 171.3 106.516 173.015 104.556C176.444 101.127 177.669 96.2285 178.158 91.5748C178.403 89.1255 177.669 86.1863 175.219 85.9414C172.77 85.9414 171.545 89.3704 169.096 89.1255C168.116 89.1255 167.137 88.1458 166.402 87.411C163.708 84.7168 160.768 82.0225 157.094 81.0428C154.4 80.0631 151.461 80.308 148.522 80.0631C144.113 79.8181 139.949 78.8384 136.03 76.634C132.356 74.4296 129.172 71.2456 127.948 67.0817C128.437 66.5919 128.927 66.102 129.662 65.8571C136.765 61.4483 144.603 58.2642 152.931 56.7946C158.319 55.8149 164.197 55.8149 168.851 58.7541C170.076 59.4888 171.055 60.7135 172.035 61.9382C173.015 63.4078 173.995 65.1223 174.729 67.0817Z" fill="#101010"/>
<path d="M139.214 128.314C136.52 128.314 134.071 127.825 132.111 126.11C130.152 124.396 129.172 121.946 128.192 119.497C122.069 103.087 119.62 84.2269 126.968 68.0614H127.213C127.458 67.5716 127.703 67.3267 127.947 67.0817C129.172 71.2456 132.356 74.6746 136.03 76.634C139.704 78.8384 144.113 79.8181 148.522 80.0631C151.461 80.308 154.4 80.308 157.094 81.0428C160.768 82.2674 163.707 84.7168 166.402 87.411C167.136 88.1458 167.871 88.8806 169.096 89.1255C171.545 89.3704 172.77 85.9414 175.219 85.9414C177.668 85.9414 178.403 89.1255 178.158 91.5748C177.668 96.2285 176.444 101.127 173.015 104.556C171.3 106.271 169.096 107.74 167.136 109.455C166.891 109.7 166.647 109.945 166.402 110.19C166.157 110.434 165.912 110.679 165.912 110.924C165.177 111.904 164.442 113.129 163.707 114.108C159.054 120.967 151.706 125.865 143.623 127.825C141.908 128.07 140.684 128.314 139.214 128.314Z" fill="#F4A958"/>
<path d="M150.971 234.859C162.483 243.677 170.076 257.148 172.28 271.354C164.932 274.293 157.339 276.988 149.502 278.457L148.522 278.702C145.583 264.986 141.174 251.76 136.52 238.533C138.725 238.288 140.929 237.799 142.888 236.819V236.574C145.583 235.839 148.277 235.349 150.971 234.859Z" fill="#F4A958"/>
<path d="M56.9175 167.503C57.1624 167.503 57.1624 167.503 56.9175 167.503C55.203 173.137 52.2638 178.28 48.5898 182.934C55.203 184.649 62.306 182.689 68.6742 179.995C75.0424 177.056 80.6758 173.137 87.044 170.443C98.3108 165.789 112.027 165.299 122.559 171.912C120.6 179.995 118.64 188.078 116.926 195.915C116.436 197.385 116.191 199.1 115.946 200.814C111.537 196.16 107.618 191.262 103.699 186.118C87.044 191.997 70.1437 196.895 53.2435 201.304C48.8348 202.529 44.426 203.508 39.7723 203.753C36.3433 203.998 32.9143 203.508 29.4853 202.774C26.791 202.039 24.0967 201.059 22.6271 198.855C20.9126 196.16 21.4025 192.731 22.1373 189.547C24.0968 181.954 27.2809 175.096 30.7099 167.993C39.5274 149.379 48.1 130.764 56.9175 112.149C57.8972 109.7 59.1218 107.25 59.3668 104.801C59.6117 102.597 59.3668 100.392 59.3668 98.188C59.3668 93.5343 60.3465 88.8806 62.306 84.7168C63.0408 83.0023 64.2654 81.2878 65.9799 81.0428C67.2046 80.7979 68.4293 81.2878 69.6539 81.5327C74.0627 83.2472 78.7164 84.7168 83.1251 86.4313C84.8396 86.9212 86.7991 88.1458 86.7991 89.8604C86.7991 92.3097 82.8801 93.2894 82.6352 95.7387C83.8599 94.514 86.0643 95.2488 86.7991 96.7184C87.5339 98.188 87.2889 99.9025 86.7991 101.617C83.615 111.414 73.8177 117.538 68.9191 126.6C66.4698 131.009 65.2451 136.152 64.0205 141.051C61.3262 149.868 59.1218 158.686 56.9175 167.503Z" fill="#F4A958"/>
<path d="M78.4715 496.935C79.9411 499.63 78.9613 503.304 78.2266 506.488C77.0019 511.631 76.2671 517.02 76.2671 522.163C75.2873 520.204 73.5728 518.245 71.3684 517.265C67.9394 515.55 63.7756 515.55 60.1017 515.55C54.9581 515.305 50.0595 515.06 45.1609 513.346C38.5477 510.897 33.4042 505.998 28.0157 501.589C22.6272 497.18 16.504 493.017 9.6459 492.282C6.4618 492.037 3.27769 492.772 1.07331 494.976H0.828369C0.828369 494.731 1.07331 494.731 1.07331 494.486C1.56318 493.506 2.05299 492.772 2.78779 492.037C4.99216 490.077 8.66614 490.322 11.6053 490.812C16.9938 491.302 22.6272 491.302 28.0157 489.343C35.1187 486.893 40.5071 481.505 46.8754 477.586C48.1 476.851 49.0797 476.116 50.5493 475.871C51.774 475.627 53.2436 475.871 54.2233 476.851C54.7131 477.341 54.9581 478.076 55.2031 478.811C55.448 479.545 55.6929 480.035 55.9378 480.77C56.6726 482.485 57.1624 484.199 57.8972 485.914C59.1219 489.098 60.3466 492.527 63.0408 494.486C63.7756 494.976 64.7553 495.466 65.7351 495.711C69.409 497.18 74.0627 496.201 78.4715 496.935Z" fill="#393B54"/>
<path d="M76.2671 523.878C76.2671 525.837 76.5121 528.042 75.5323 529.511C74.7975 530.981 73.083 531.961 71.6134 532.45C68.9192 533.675 65.98 534.165 63.0408 534.165C57.8973 534.165 53.2436 532.206 48.8349 529.756C44.4261 527.307 40.2623 524.613 35.6086 522.408C28.9955 519.469 21.8924 518 15.0344 515.55C9.40094 513.591 3.76759 510.652 1.31828 505.508C-0.396237 502.079 -0.396252 497.915 1.07333 494.486H1.31828C3.52266 492.282 6.70676 491.547 9.89086 491.792C16.7489 492.282 22.8722 496.691 28.2607 501.099C33.6492 505.508 38.7927 510.407 45.4059 512.856C50.0595 514.571 55.203 515.06 60.3466 515.06C64.2655 515.305 68.1844 515.305 71.6134 516.775C73.8178 517.755 75.5323 519.469 76.512 521.674C76.2671 522.898 76.2671 523.388 76.2671 523.878Z" fill="#E2E2E2"/>
<path d="M735.561 334.923C724.257 418.853 662.381 489.077 583.254 517.115C530.428 535.918 469.993 531.485 418.941 508.323C416.392 507.289 413.88 505.922 411.368 504.777C395.921 496.518 383.368 483.734 375.392 468.138C367.416 452.543 364.398 434.882 366.744 417.523C368.501 404.045 373.468 391.187 381.227 380.027C388.985 368.868 399.309 359.734 411.331 353.394C411.42 353.279 411.532 353.184 411.659 353.115C411.786 353.045 411.926 353.001 412.07 352.987C435.121 344.011 459.022 347.853 486.173 351.029C487.104 351.158 488.042 351.232 488.981 351.251C516.391 354.206 544.392 351.029 569.364 340.575C569.623 340.464 569.881 340.353 570.14 340.243C605.603 326.796 647.716 294.251 654.697 215.937C657.616 138.25 596.627 101.088 554.883 84.7968C591.861 93.1824 646.312 112.909 685.1 158.457C685.882 159.283 686.61 160.16 687.279 161.08C693.019 168.238 698.299 175.752 703.09 183.577C716.73 205.551 726.571 229.666 732.199 254.909C732.938 258.049 733.529 261.337 734.083 264.588C738.186 287.818 738.685 311.541 735.561 334.923Z" fill="url(#paint1_linear)"/>
<path d="M558.361 221.735C557.936 222.16 557.512 222.585 557.087 223.222C556.449 223.435 555.812 223.647 554.962 223.647C554.325 223.86 553.475 223.86 552.838 223.435C551.776 222.797 551.563 221.523 551.563 220.461C551.351 215.787 552.413 210.901 554.537 206.652C556.662 202.828 559.636 199.429 560.698 194.968C561.76 189.657 559.424 184.346 558.149 179.035C557.087 174.574 556.662 169.9 557.299 165.227C561.76 154.605 567.709 144.62 575.569 136.123C581.092 130.175 587.465 125.076 593.838 119.978C598.937 115.941 604.035 111.905 609.134 107.869C609.771 107.444 610.409 106.806 611.258 107.019C612.108 107.231 612.745 108.081 613.17 108.931C615.719 114.667 612.533 121.04 609.771 126.563C607.01 132.086 604.46 138.884 607.434 144.195C608.709 146.32 610.621 148.019 611.046 150.144C611.896 153.968 608.709 157.367 605.735 160.128C600.636 164.589 595.75 169.476 591.077 174.362C589.802 175.636 588.528 177.548 589.377 179.035C589.802 179.673 590.439 180.097 591.289 180.522C595.113 182.222 599.574 181.797 603.823 182.222C608.072 182.859 612.533 185.408 612.745 189.657C612.745 193.056 609.559 196.243 610.196 199.642C610.621 203.253 614.87 205.165 616.144 208.564C617.631 212.813 614.445 217.062 611.258 220.461C610.621 221.098 610.196 221.523 609.559 222.16H609.346C602.336 220.673 595.75 218.124 588.528 217.062C580.242 215.999 571.745 217.062 564.097 220.248C562.398 220.885 560.911 221.735 559.211 222.372C558.999 222.16 558.574 221.948 558.361 221.735Z" fill="#E09905"/>
<path d="M577.056 85.7751C577.906 82.1637 578.755 78.5523 578.543 74.7284C578.543 75.3657 578.755 76.003 578.968 76.6404C580.03 81.7389 582.367 86.4125 585.129 90.8737C586.828 93.4229 588.527 95.9722 590.864 97.6717C585.553 97.6717 580.455 96.397 575.994 93.8478C575.781 93.6353 575.569 93.6353 575.356 93.4229C575.144 93.2105 575.356 92.998 575.356 92.5732C575.781 90.2364 576.418 88.112 577.056 85.7751Z" fill="#E5913C"/>
<path d="M591.077 97.6716C588.74 95.9721 586.828 93.4228 585.341 90.8736C582.579 86.4124 580.242 81.7388 579.18 76.6403C578.968 76.0029 578.968 75.3656 578.756 74.7283C578.543 73.0288 578.331 71.5417 578.331 69.8422C578.331 69.2049 578.331 68.5676 577.906 67.9303C577.693 67.5054 577.268 67.0806 576.844 66.8681C574.082 64.5313 572.807 60.495 573.445 56.8836C573.657 56.2462 573.869 55.6089 574.082 54.9716C574.932 52.8472 577.268 50.9353 579.18 51.785C580.667 52.4223 581.517 54.1219 581.517 55.8214C581.517 57.5209 581.305 59.2204 581.305 60.9199C581.305 61.982 581.73 63.0442 582.579 63.6816C583.642 64.5313 585.341 64.1064 586.403 63.2567C587.465 62.4069 588.315 61.3447 589.165 60.2825C591.289 58.1582 594.051 56.8836 597.025 56.8836C600.424 56.6711 603.823 58.1582 607.01 57.3084C610.409 56.4587 612.745 53.697 616.144 52.8472C618.694 52.4223 621.243 53.0597 623.792 53.2721C624.217 53.2721 624.854 53.2721 625.279 53.2721C624.217 59.6452 621.88 66.0184 619.543 71.9666C618.269 74.9407 617.207 78.1273 615.932 81.1014C615.932 81.3139 615.72 81.5263 615.72 81.7388C613.808 86.4124 611.896 91.2984 608.284 94.9099C604.673 98.7338 598.937 101.071 594.051 99.3711C593.201 99.1586 592.139 98.5213 591.077 97.6716Z" fill="#F4A958"/>
<path d="M557.299 165.439C556.45 167.564 555.6 169.476 554.963 171.6C553.688 175.424 552.413 179.248 550.501 182.647C549.014 185.408 546.89 187.958 544.341 189.657C541.367 186.258 537.755 183.496 533.719 181.16C530.32 179.035 526.496 177.336 522.672 175.636C519.698 174.149 516.724 172.875 513.75 171.387C513.537 171.387 513.537 171.175 513.325 171.175C512.687 170.75 511.838 170.325 511.838 169.688C511.838 169.263 512.05 168.838 512.262 168.626C521.397 153.118 530.32 137.822 539.455 122.314C544.128 114.454 548.802 106.594 554.75 99.796C560.698 93.2104 568.346 87.6871 577.056 85.7751C576.419 88.1119 575.781 90.4487 575.356 92.7856C575.356 92.998 575.356 93.4229 575.356 93.6353C575.569 93.8478 575.781 94.0602 575.994 94.0602C580.667 96.6095 585.766 97.8841 590.864 97.8841C591.927 98.7338 592.989 99.1587 594.051 99.5836C598.937 101.283 604.673 98.9463 608.284 95.1224C611.683 91.5109 613.808 86.6249 615.72 81.9513C622.093 79.402 628.466 76.8527 635.052 74.3035C635.476 74.0911 635.901 73.8786 636.326 74.091C636.751 74.3035 636.963 74.5159 637.176 74.9408C637.388 75.1533 637.601 75.5781 637.601 75.7906C639.088 78.1274 640.362 80.6766 641.637 83.2259C643.549 87.0497 645.461 90.8736 647.373 94.6975C647.585 95.1224 647.798 95.5473 647.798 95.9721C648.01 96.6094 648.01 97.0343 648.01 97.6716C647.798 98.7338 646.948 99.796 646.098 100.433C643.337 103.407 640.787 106.594 638.875 110.205C637.601 112.542 636.326 115.304 636.114 118.066C635.689 122.952 637.813 127.625 639.3 132.087C641.425 138.672 642.487 145.683 641.849 152.693C641.425 157.791 640.362 162.678 640.362 167.776C640.362 175.211 642.487 182.647 644.399 189.87C647.16 201.341 648.86 213.025 649.285 224.922C649.497 228.108 649.285 231.932 647.798 234.694C648.86 232.357 647.798 229.171 645.673 227.471C644.399 226.409 642.699 225.772 641 225.559C639.3 225.134 637.601 225.134 635.901 225.134C626.766 224.709 617.844 224.709 608.922 222.797C609.559 222.16 609.984 221.735 610.621 221.098C613.595 217.911 616.994 213.45 615.507 209.201C614.233 205.802 610.196 203.89 609.559 200.279C609.134 196.88 612.321 193.693 612.108 190.294C612.108 186.046 607.435 183.496 603.186 182.859C598.937 182.222 594.688 182.859 590.652 181.16C590.015 180.735 589.165 180.31 588.74 179.673C587.89 178.186 589.165 176.274 590.44 174.999C595.113 170.113 599.999 165.227 605.098 160.766C608.072 158.004 611.471 154.605 610.409 150.781C609.771 148.444 607.859 146.745 606.797 144.833C603.611 139.522 606.372 132.724 609.134 127.2C611.896 121.677 614.87 115.304 612.533 109.568C612.108 108.718 611.683 107.869 610.621 107.656C609.771 107.656 609.134 108.081 608.497 108.506C603.398 112.542 598.3 116.579 593.201 120.615C586.828 125.713 580.455 130.812 574.932 136.76C567.709 144.62 561.76 154.605 557.299 165.439Z" fill="#FAB423"/>
<defs>
<linearGradient id="paint0_linear" x1="378.588" y1="271.064" x2="672.587" y2="171.676" gradientUnits="userSpaceOnUse">
<stop stop-color="#EF4136"/>
<stop offset="1" stop-color="#FAB423"/>
</linearGradient>
<linearGradient id="paint1_linear" x1="365.97" y1="528.254" x2="801.897" y2="418.03" gradientUnits="userSpaceOnUse">
<stop stop-color="#BE1E2D"/>
<stop offset="1" stop-color="#EE2A7B"/>
</linearGradient>
</defs>
</svg>
