<svg width="46" height="46" viewBox="0 0 46 46" fill="none" xmlns="http://www.w3.org/2000/svg">
<path d="M46 23C46 35.7024 35.7024 46 23 46C19.1876 46 15.5932 45.0724 12.4276 43.4314C11.3863 42.8916 10.3913 42.2739 9.45079 41.5878C9.28549 41.4664 9.12195 41.3446 8.96051 41.2197C8.52042 40.88 8.09331 40.5251 7.67918 40.1542C7.67532 40.1503 7.67076 40.1468 7.6669 40.143C2.96169 35.9326 0 29.8127 0 23C0 10.2973 10.2973 0 23 0C35.7024 0 46 10.2973 46 23Z" fill="url(#paint0_linear)"/>
<path d="M34.3309 40.3918V43.0193C30.9866 44.9166 27.1198 46 22.9997 46C20.5711 46 18.2316 45.6234 16.034 44.9261C14.5038 44.4407 13.0421 43.7985 11.6688 43.0193V40.3918C11.6688 35.9073 15.1225 32.2283 19.5168 31.8735C19.7477 31.8545 19.9804 31.845 20.2163 31.845H25.7824C26.4404 31.845 27.0805 31.9184 27.6954 32.0591C31.4955 32.9284 34.3309 36.3298 34.3309 40.3918Z" fill="#186167"/>
<path d="M34.3308 40.3918V43.0193C30.9866 44.9166 27.1198 46 22.9996 46C20.571 46 18.2316 45.6234 16.0339 44.9261V40.3918C16.0339 35.6715 19.8614 31.845 24.5824 31.845H25.7823C30.504 31.845 34.3308 35.6715 34.3308 40.3918Z" fill="#228891"/>
<path d="M27.5315 32.0233C27.5153 32.0837 27.5069 32.1153 27.5069 32.1153V32.3753C27.5069 34.3638 26.2312 36.094 24.3322 36.6808C23.9019 36.8149 23.4524 36.8826 22.9989 36.8826C20.5142 36.8826 18.492 34.8615 18.492 32.3753V32.0188C18.8272 31.9503 19.1686 31.9015 19.5171 31.8731C19.7481 31.8545 19.9807 31.845 20.2166 31.845H25.7823C26.3825 31.845 26.9671 31.9061 27.5315 32.0233Z" fill="#D8D4CE"/>
<path d="M26.0491 28.5524V32.295C26.0491 33.6651 25.1457 34.8232 23.9013 35.2079C23.6166 35.296 23.3131 35.3441 22.999 35.3441C21.3151 35.3441 19.9499 33.9789 19.9499 32.295V28.5524H26.0491Z" fill="#BF7C5E"/>
<path d="M26.0491 32.0577V32.295C26.0491 33.6651 25.1457 34.8232 23.9012 35.2079C22.7785 34.8625 21.9345 33.8866 21.7787 32.6919C21.9822 32.7045 22.1872 32.7109 22.3929 32.7109C22.9698 32.7109 23.5356 32.6649 24.0865 32.5747C24.7653 32.4655 25.4212 32.2908 26.0491 32.0577Z" fill="#D39272"/>
<path d="M14.634 22.4192C14.634 23.8307 13.6029 25.0015 12.2525 25.2187C12.1051 25.2426 11.9531 25.2549 11.7983 25.2549C10.2317 25.2549 8.96228 23.9858 8.96228 22.4192C8.96228 20.8525 10.2317 19.5831 11.7983 19.5831C11.9531 19.5831 12.1051 19.5954 12.2525 19.6196C13.6029 19.8369 14.634 21.0073 14.634 22.4192Z" fill="#D39272"/>
<path d="M14.634 22.4192C14.634 23.8307 13.6029 25.0015 12.2524 25.2187C12.0071 24.3266 11.8762 23.3878 11.8762 22.4192C11.8762 21.4502 12.0071 20.5114 12.2524 19.6196C13.6029 19.8369 14.634 21.0073 14.634 22.4192Z" fill="#BF7C5E"/>
<path d="M12.8119 22.4192C12.8119 22.9789 12.3581 23.4327 11.7983 23.4327C11.2385 23.4327 10.7848 22.9789 10.7848 22.4192C10.7848 21.8594 11.2385 21.4053 11.7983 21.4053C12.3581 21.4053 12.8119 21.8594 12.8119 22.4192Z" fill="#BF7C5E"/>
<path d="M31.3646 22.4192C31.3646 23.8307 32.3957 25.0015 33.7462 25.2187C33.8939 25.2426 34.0455 25.2549 34.2006 25.2549C35.7673 25.2549 37.0363 23.9858 37.0363 22.4192C37.0363 20.8525 35.7673 19.5831 34.2006 19.5831C34.0455 19.5831 33.8939 19.5954 33.7462 19.6196C32.3957 19.8369 31.3646 21.0073 31.3646 22.4192Z" fill="#D39272"/>
<path d="M31.3646 22.4192C31.3646 23.8307 32.3957 25.0015 33.7462 25.2187C33.9915 24.3266 34.1227 23.3878 34.1227 22.4192C34.1227 21.4502 33.9918 20.5114 33.7462 19.6196C32.3957 19.8369 31.3646 21.0073 31.3646 22.4192Z" fill="#BF7C5E"/>
<path d="M33.5507 16.8941V20.9122C33.5507 26.1628 29.7151 30.5184 24.6926 31.327C24.6758 31.3298 24.6579 31.3327 24.6411 31.3355C24.1069 31.4207 23.5584 31.4629 22.9989 31.4629C17.1721 31.4629 12.4483 26.739 12.4483 20.9122V16.8941C12.4483 15.6672 12.6574 14.488 13.0442 13.3927C14.4873 9.28619 18.4001 6.34241 22.9989 6.34241H23C23.5584 6.34241 24.1076 6.38557 24.6428 6.47015C29.6895 7.25874 33.5507 11.6256 33.5507 16.8941Z" fill="#BF7C5E"/>
<path d="M35.2142 22.4192C35.2142 22.9789 34.7604 23.4327 34.2006 23.4327C33.6409 23.4327 33.1871 22.9789 33.1871 22.4192C33.1871 21.8594 33.6409 21.4053 34.2006 21.4053C34.7604 21.4053 35.2142 21.8594 35.2142 22.4192Z" fill="#BF7C5E"/>
<path d="M33.5507 16.8941V20.9122C33.5507 26.1628 29.7151 30.5184 24.6926 31.327C24.6758 31.3298 24.6579 31.3327 24.6411 31.3355C19.594 30.5469 15.7339 26.1796 15.7339 20.9122V16.8941C15.7339 11.6256 19.5951 7.25874 24.6428 6.47015C29.6895 7.25874 33.5507 11.6256 33.5507 16.8941Z" fill="#D39272"/>
<path d="M20.7525 20.2977C20.7525 20.9585 20.2166 21.4944 19.5554 21.4944C18.8942 21.4944 18.3583 20.9585 18.3583 20.2977C18.3583 19.6365 18.8942 19.1006 19.5554 19.1006C20.2166 19.1006 20.7525 19.6365 20.7525 20.2977Z" fill="#0B133D"/>
<path d="M27.6406 20.2977C27.6406 20.9585 27.1047 21.4944 26.4435 21.4944C25.7823 21.4944 25.2468 20.9585 25.2468 20.2977C25.2468 19.6365 25.7823 19.1006 26.4435 19.1006C27.1047 19.1006 27.6406 19.6365 27.6406 20.2977Z" fill="#0B133D"/>
<path d="M20.5082 20.0864C20.5082 20.3696 20.2787 20.5992 19.9955 20.5992C19.7123 20.5992 19.4828 20.3696 19.4828 20.0864C19.4828 19.8032 19.7123 19.5737 19.9955 19.5737C20.2787 19.5737 20.5082 19.8032 20.5082 20.0864Z" fill="white"/>
<path d="M27.4553 20.0864C27.4553 20.3696 27.2258 20.5992 26.9426 20.5992C26.659 20.5992 26.4295 20.3696 26.4295 20.0864C26.4295 19.8032 26.659 19.5737 26.9426 19.5737C27.2258 19.5737 27.4553 19.8032 27.4553 20.0864Z" fill="white"/>
<path d="M24.1964 23.3113H21.8026C21.5172 23.3113 21.2863 23.0804 21.2863 22.7951C21.2863 22.5097 21.5172 22.2788 21.8026 22.2788H24.1964C24.4817 22.2788 24.7127 22.5097 24.7127 22.7951C24.7127 23.08 24.4817 23.3113 24.1964 23.3113Z" fill="#BF7C5E"/>
<path d="M22.9996 26.1087C22.116 26.1087 21.2326 25.8873 20.4272 25.4444C20.2001 25.3198 20.1169 25.0341 20.2419 24.8071C20.3668 24.58 20.6521 24.4972 20.8792 24.6218C22.2068 25.3517 23.7921 25.3517 25.1197 24.6218C25.3468 24.4972 25.6321 24.58 25.7571 24.8071C25.882 25.0341 25.7992 25.3198 25.5718 25.4444C24.7667 25.8873 23.883 26.1087 22.9996 26.1087Z" fill="#BF7C5E"/>
<path d="M33.5507 10.4457H12.4539C11.3593 8.19261 14.0834 3.21716 23.0018 3.21716C24.0016 3.21716 24.9236 3.27998 25.7711 3.39474C32.4834 4.2988 34.5225 8.4453 33.5507 10.4457Z" fill="#080E2D"/>
<path d="M23.0003 12.8708C23.0003 12.8708 22.9635 15.2625 27.7877 16.0785C27.7877 16.0785 24.5958 14.4824 25.7223 12.1356" fill="#BF7C5E"/>
<path d="M23.9392 12.8708C23.9392 12.8708 23.9023 15.2625 28.7265 16.0785C28.7265 16.0785 25.5346 14.4824 26.6611 12.1356" fill="#0B133D"/>
<path d="M33.5507 10.4458H17.9926C17.0209 8.44533 19.0588 4.29883 25.7711 3.39478C32.4835 4.29883 34.5225 8.44533 33.5507 10.4458Z" fill="#0B133D"/>
<path d="M14.8326 12.5665V17.9557L12.4483 19.4936V16.8941C12.4483 15.6672 12.6574 14.488 13.0442 13.3927L14.8326 12.5665Z" fill="#080E2D"/>
<path d="M31.1663 12.5665V17.9557L33.5507 19.4936V16.8941C33.5507 15.6672 33.3415 14.488 32.9548 13.3927L31.1663 12.5665Z" fill="#0B133D"/>
<path d="M33.5507 10.4457V14.9519C28.7124 12.9476 23.4457 12.3795 18.3643 13.247C17.9014 13.326 17.4406 13.4158 16.9815 13.5193C15.4436 13.8629 13.9296 14.3406 12.4539 14.9519V10.4457C13.9296 9.8347 15.4436 9.3567 16.9815 9.01312C17.4406 8.90994 17.9014 8.81974 18.3643 8.74078C23.4457 7.87358 28.7124 8.44142 33.5507 10.4457Z" fill="#FAB423"/>
<path d="M15.9189 40.3918V44.8892C14.4298 44.4077 13.0077 43.7788 11.6688 43.0194V40.3918H15.9189Z" fill="#BF7C5E"/>
<path d="M34.3309 40.3918V43.0194C32.9923 43.7788 31.5699 44.4077 30.0812 44.8892V40.3918H34.3309Z" fill="#D39272"/>
<path d="M16.9815 9.01318V13.5194C15.4436 13.863 13.9296 14.3406 12.4539 14.952V10.4458C13.9296 9.83476 15.4436 9.35677 16.9815 9.01318Z" fill="#EF4136"/>
<path d="M12.4546 40.3953V43.0682C12.4546 43.192 12.4455 43.3131 12.4276 43.4314C11.3863 42.8916 10.3914 42.274 9.45081 41.5878C8.83664 41.139 8.24529 40.661 7.6792 40.1542C7.80028 38.9459 8.82085 38.0015 10.0608 38.0015C10.3763 38.0015 10.6767 38.0625 10.9525 38.1734C11.2551 38.2945 11.5274 38.4756 11.7534 38.7027C12.1861 39.1364 12.4546 39.7345 12.4546 40.3953Z" fill="#BF7C5E"/>
<path d="M12.4546 40.3953V43.0681C12.4546 43.192 12.4455 43.3131 12.4276 43.4314C11.3863 42.8916 10.3914 42.2739 9.45081 41.5878V40.3953C9.45081 39.3891 10.072 38.5272 10.9525 38.1734C11.2551 38.2945 11.5274 38.4756 11.7534 38.7026C12.1861 39.1364 12.4546 39.7344 12.4546 40.3953Z" fill="#D39272"/>
<path d="M8.96051 36.3032V41.2197C8.52042 40.8799 8.09331 40.5251 7.67918 40.1542C7.67532 40.1503 7.67076 40.1468 7.6669 40.1429V36.3032C7.6669 35.9456 7.95609 35.6564 8.31371 35.6564C8.67133 35.6564 8.96051 35.9456 8.96051 36.3032Z" fill="#BF7C5E"/>
<path d="M14.919 28.9767C14.919 30.6294 14.3132 32.1392 13.3109 33.2973C13.1116 33.5261 12.8965 33.7427 12.6687 33.9431C11.613 34.8703 10.259 35.4644 8.76926 35.5659C8.61905 35.576 8.46744 35.5817 8.31372 35.5817C8.16 35.5817 8.00874 35.576 7.85854 35.5659C6.36874 35.4644 5.01477 34.8699 3.95911 33.9431C3.73134 33.7427 3.5162 33.5261 3.31686 33.2973C2.31454 32.1392 1.7088 30.629 1.7088 28.9767C1.7088 27.3255 2.31454 25.8154 3.31581 24.6572C3.5162 24.4274 3.73029 24.2108 3.95911 24.0104C5.01477 23.0836 6.36874 22.489 7.85854 22.3876C8.00874 22.3774 8.16035 22.3718 8.31372 22.3718C8.46779 22.3718 8.61905 22.3774 8.76926 22.3876C10.259 22.489 11.613 23.0836 12.6687 24.0104C12.8975 24.2108 13.1116 24.4274 13.312 24.6572C14.3132 25.8154 14.919 27.3255 14.919 28.9767Z" fill="#F46D11"/>
<path d="M4.83157 28.9767C4.83157 25.3289 6.78532 22.3718 8.31372 22.3718C4.66592 22.3718 1.7088 25.3289 1.7088 28.9767C1.7088 32.6249 4.66592 35.582 8.31372 35.582C6.78532 35.582 4.83157 32.6249 4.83157 28.9767Z" fill="#D65A05"/>
<path d="M10.2359 30.2545C11.5284 29.1167 13.1681 28.4952 14.9025 28.4984C14.9235 28.8012 14.9242 29.1066 14.9049 29.4091C13.412 29.4059 12.0012 29.9327 10.882 30.9006L13.2951 33.3138C13.1961 33.4275 13.0933 33.5384 12.9845 33.6472C12.8757 33.756 12.7645 33.8592 12.6511 33.9581L10.2376 31.5446C9.2697 32.6638 8.74327 34.0746 8.74643 35.5679C8.44356 35.5872 8.13858 35.5862 7.83571 35.5655C7.83255 33.8307 8.45408 32.1914 9.59187 30.8989L6.39259 27.6996C5.10003 28.8374 3.46074 29.4589 1.72528 29.4565C1.70422 29.1522 1.70282 28.8479 1.72282 28.544C3.21753 28.5475 4.6273 28.02 5.74684 27.0535L3.33264 24.6393C3.43161 24.5259 3.53479 24.4147 3.64323 24.3062C3.75203 24.1974 3.86328 24.0943 3.97664 23.9953L6.39084 26.4095C7.35701 25.29 7.88449 23.8802 7.88133 22.3855C8.1849 22.3655 8.48953 22.3669 8.79381 22.3879C8.79626 24.1234 8.17473 25.7627 7.03659 27.0552L10.2359 30.2545Z" fill="#D65A05"/>
<defs>
<linearGradient id="paint0_linear" x1="-7.37198e-07" y1="45.9388" x2="52.6086" y2="30.0439" gradientUnits="userSpaceOnUse">
<stop stop-color="#BE1E2D"/>
<stop offset="1" stop-color="#EE2A7B"/>
</linearGradient>
</defs>
</svg>
