<svg width="46" height="46" viewBox="0 0 46 46" fill="none" xmlns="http://www.w3.org/2000/svg">
<path d="M46 23C46 35.7024 35.7024 46 23 46C19.1876 46 15.5932 45.0724 12.4276 43.4314C11.3863 42.8916 10.3913 42.2739 9.45079 41.5878C9.28549 41.4664 9.12195 41.3446 8.96051 41.2197C8.52042 40.88 8.09331 40.5251 7.67918 40.1542C7.67532 40.1503 7.67076 40.1468 7.6669 40.143C2.96169 35.9326 0 29.8127 0 23C0 10.2973 10.2973 0 23 0C35.7024 0 46 10.2973 46 23Z" fill="url(#paint0_linear)"/>
<mask id="mask0" mask-type="alpha" maskUnits="userSpaceOnUse" x="0" y="0" width="46" height="46">
<path d="M46 23C46 35.7024 35.7024 46 23 46C19.1876 46 15.5932 45.0724 12.4276 43.4314C11.3863 42.8916 10.3913 42.2739 9.45079 41.5878C9.28549 41.4664 9.12195 41.3446 8.96051 41.2197C8.52042 40.88 8.09331 40.5251 7.67918 40.1542C7.67532 40.1503 7.67076 40.1468 7.6669 40.143C2.96169 35.9326 0 29.8127 0 23C0 10.2973 10.2973 0 23 0C35.7024 0 46 10.2973 46 23Z" fill="url(#paint1_linear)"/>
</mask>
<g mask="url(#mask0)">
<path d="M33.2122 51.7989V31.7789C33.2122 31.2237 33.4036 30.6853 33.754 30.2547L35.1482 28.5417L35.0378 27.9179L31.9514 24.8687L31.2831 24.6767L27.6463 28.4718C27.2695 29.7376 18.9986 30.0301 18.3536 28.4718L14.7168 24.6767H14.1999L11.0157 27.98L10.8518 28.5417L12.246 30.2547C12.5964 30.6853 12.7878 31.2236 12.7878 31.7789V51.7989C12.7878 52.2434 13.1481 52.6037 13.5926 52.6037H32.4074C32.8519 52.6037 33.2122 52.2434 33.2122 51.7989Z" fill="#0067C5"/>
<path d="M13.4839 25.9097L15.9392 28.4718C16.5799 29.1405 17.6652 28.7855 17.8514 27.9477L14.7169 24.6768L13.4839 25.9097Z" fill="#0055A3"/>
<path d="M33.8171 27.2105L31.3396 30.2546C30.9891 30.6852 30.7978 31.2235 30.7978 31.7787V51.7987C30.7978 52.2432 30.4374 52.6036 29.9929 52.6036H32.4074C32.8519 52.6036 33.2123 52.2432 33.2123 51.7987V31.7787C33.2123 31.2235 33.4036 30.6852 33.7541 30.2546L35.1482 28.5416L33.8171 27.2105Z" fill="#0055A3"/>
<path d="M27.6464 28.4718C26.9438 29.205 25.7061 28.7077 25.7061 27.6922V25.5713H20.2939V27.6922C20.2939 28.7077 19.0562 29.2049 18.3537 28.4718L18.1029 28.2102C18.8077 30.2367 20.7333 31.6919 23 31.6919C25.2667 31.6919 27.1923 30.2368 27.8971 28.2102L27.6464 28.4718Z" fill="#FED2A4"/>
<path d="M14.7169 24.6767L11.3344 21.147C11.1611 20.9661 11.0323 20.7473 10.9585 20.508L7.80582 10.2916H5.41449L6.53149 22.3686C6.59033 23.0047 6.83705 23.6088 7.24023 24.1043L10.8518 28.5417L14.7169 24.6767Z" fill="#FED2A4"/>
<path d="M8.54399 20.508C8.61782 20.7473 8.74661 20.9662 8.91989 21.147L13.4839 25.9097L14.7169 24.6768L11.3344 21.147C11.161 20.9661 11.0323 20.7473 10.9585 20.508L7.80582 10.2915H5.41449L5.4244 10.3986L8.54399 20.508Z" fill="#FFBD86"/>
<path d="M35.0416 20.508C34.9677 20.7473 34.839 20.9662 34.6657 21.147L31.2832 24.6767L35.1482 28.5417L38.7598 24.1043C39.163 23.6088 39.4097 23.0046 39.4686 22.3686L40.5856 10.2916H38.1942L35.0416 20.508Z" fill="#FED2A4"/>
<path d="M38.1942 10.2915L38.1611 10.3986L37.054 22.3686C36.9952 23.0047 36.7485 23.6089 36.3453 24.1043L33.8171 27.2106L35.1482 28.5417L38.7599 24.1043C39.163 23.6089 39.4098 23.0047 39.4686 22.3686L40.5856 10.2916H38.1942V10.2915Z" fill="#FFBD86"/>
<path d="M26.5973 13.2201C26.4195 13.1579 26.2812 13.0188 26.2202 12.8405C25.8691 11.8136 24.8962 11.0752 23.7503 11.0752H20.2519C18.8103 11.0752 17.6417 12.2438 17.6417 13.6854V20.0617H21.6238H26.3604H28.3444V15.6836C28.3444 14.5445 27.6147 13.5764 26.5973 13.2201Z" fill="#0B133D"/>
<path d="M25.7061 27.6923V25.5714H20.2939V27.6923C20.2939 27.697 20.2934 27.7016 20.2933 27.7064C21.1272 28.506 22.258 28.9982 23.5045 28.9982H24.9102C25.4418 28.9982 25.9519 28.9077 26.4276 28.7432C26.0233 28.587 25.7061 28.2062 25.7061 27.6923Z" fill="#FFBD86"/>
<path d="M23.7029 26.5837H22.2973C19.7338 26.5837 17.6558 24.5057 17.6558 21.9422V18.9079C18.489 18.942 19.8161 18.8911 21.3244 18.358C22.2753 18.0219 23.0373 17.5863 23.6078 17.1936C23.827 17.0427 24.1222 17.0734 24.3032 17.2683C24.6223 17.6119 25.0946 18.0271 25.7467 18.358C26.8484 18.9169 27.8662 18.9317 28.3444 18.9079V21.9422C28.3444 24.5057 26.2664 26.5837 23.7029 26.5837Z" fill="#FED2A4"/>
<path d="M21.3292 20.8898C21.3292 21.3811 20.9309 21.7794 20.4394 21.7794C19.9479 21.7794 19.5496 21.3811 19.5496 20.8898C19.5496 20.3984 19.9479 20 20.4394 20C20.9309 20 21.3292 20.3984 21.3292 20.8898Z" fill="#0B133D"/>
<path d="M26.4494 20.8898C26.4494 21.3811 26.051 21.7794 25.5596 21.7794C25.0681 21.7794 24.67 21.3811 24.67 20.8898C24.67 20.3984 25.0681 20 25.5596 20C26.051 20 26.4494 20.3984 26.4494 20.8898Z" fill="#0B133D"/>
<path d="M21.1477 20.7328C21.1477 20.9433 20.9771 21.1139 20.7666 21.1139C20.556 21.1139 20.3854 20.9433 20.3854 20.7328C20.3854 20.5223 20.556 20.3517 20.7666 20.3517C20.9771 20.3517 21.1477 20.5223 21.1477 20.7328Z" fill="white"/>
<path d="M26.3116 20.7328C26.3116 20.9433 26.141 21.1139 25.9305 21.1139C25.7197 21.1139 25.5491 20.9433 25.5491 20.7328C25.5491 20.5223 25.7197 20.3517 25.9305 20.3517C26.141 20.3517 26.3116 20.5223 26.3116 20.7328Z" fill="white"/>
<path d="M23.8892 23.1299H22.1098C21.8977 23.1299 21.726 22.9583 21.726 22.7462C21.726 22.5341 21.8977 22.3624 22.1098 22.3624H23.8892C24.1012 22.3624 24.2729 22.5341 24.2729 22.7462C24.2729 22.958 24.1012 23.1299 23.8892 23.1299Z" fill="#FFAC66"/>
<path d="M22.9996 25.2093C22.3427 25.2093 21.6861 25.0447 21.0874 24.7155C20.9186 24.6229 20.8568 24.4105 20.9496 24.2417C21.0425 24.073 21.2546 24.0114 21.4234 24.104C22.4103 24.6466 23.5886 24.6466 24.5755 24.104C24.7443 24.0114 24.9563 24.073 25.0492 24.2417C25.1421 24.4105 25.0805 24.6229 24.9115 24.7155C24.313 25.0447 23.6562 25.2093 22.9996 25.2093Z" fill="#FFAC66"/>
<path d="M29.31 21.7988H28.3442V18.9014H29.31C30.1101 18.9014 30.7587 19.5501 30.7587 20.3502C30.7587 21.1502 30.1101 21.7988 29.31 21.7988Z" fill="#FFBD86"/>
<path d="M16.69 21.7988H17.6558V18.9014H16.69C15.8899 18.9014 15.2413 19.5501 15.2413 20.3502C15.2413 21.1502 15.8899 21.7988 16.69 21.7988Z" fill="#FFBD86"/>
<path d="M26.5973 13.2201C26.4195 13.1579 26.2812 13.0188 26.2202 12.8405C25.8691 11.8137 24.8961 11.0752 23.7503 11.0752H20.2519C18.8103 11.0752 17.6417 12.2438 17.6417 13.6854V16.3142H28.3444V15.6836C28.3444 14.5445 27.6146 13.5764 26.5973 13.2201Z" fill="#080E2D"/>
</g>
<path d="M39.3782 13.8997H6.62171C5.28821 13.8997 4.20721 12.8187 4.20721 11.4852V4.41449C4.20721 3.08099 5.28821 2 6.62171 2H39.3783C40.7118 2 41.7928 3.08099 41.7928 4.41449V11.4852C41.7927 12.8187 40.7117 13.8997 39.3782 13.8997Z" fill="#BE1E2D"/>
<path d="M40.0697 9.92976C39.6614 9.74546 39.3408 9.40746 39.1823 8.98842C39.0849 8.73084 39.0058 8.40942 39.0002 8.03606C38.9926 7.52264 39.1271 7.1009 39.2656 6.80288C39.3998 6.51413 39.6095 6.26583 39.8774 6.09382C40.1409 5.92467 40.5242 5.74576 41.0128 5.70198C41.107 5.69357 41.1982 5.69072 41.2861 5.69254C42.0923 5.70928 42.7663 6.30501 42.9137 7.09781C42.9731 7.41788 43.01 7.78506 42.9975 8.18975C42.9916 8.38 42.9754 8.56057 42.952 8.73052C42.83 9.61381 42.0489 10.2635 41.1592 10.2038C41.1524 10.2033 41.1455 10.2028 41.1387 10.2023C40.7112 10.1709 40.3507 10.0566 40.0697 9.92976Z" fill="#FED2A4"/>
<path d="M5.93019 9.92976C6.33852 9.74546 6.65915 9.40746 6.8176 8.98842C6.91499 8.73084 6.99413 8.40942 6.99968 8.03606C7.0073 7.52264 6.87288 7.1009 6.73433 6.80288C6.60015 6.51413 6.39039 6.26583 6.1225 6.09382C5.85905 5.92467 5.47578 5.74576 4.9871 5.70198C4.89297 5.69357 4.80177 5.69072 4.71382 5.69254C3.90762 5.70928 3.23361 6.30501 3.08627 7.09781C3.02679 7.41788 2.98991 7.78506 3.00244 8.18975C3.00823 8.38008 3.02449 8.56065 3.04788 8.7306C3.16985 9.61389 3.951 10.2635 4.84063 10.2038C4.84745 10.2034 4.85435 10.2029 4.86117 10.2024C5.2887 10.1709 5.64921 10.0566 5.93019 9.92976Z" fill="#FED2A4"/>
<path d="M28.8334 5.45752C28.8312 5.45189 28.829 5.44618 28.8267 5.44055C28.7165 5.17353 28.4591 5.00128 28.1703 5.00128C28.17 5.00128 28.1697 5.00128 28.1693 5.00128C27.8803 5.0016 27.6228 5.17472 27.5132 5.44229C27.5113 5.44681 27.5095 5.45149 27.5078 5.45609L25.7467 10.0801C25.628 10.3916 25.7844 10.7403 26.0959 10.859C26.4071 10.9777 26.7561 10.8213 26.8749 10.5097L27.1654 9.74699H29.1618L29.449 10.5082C29.5402 10.7499 29.7699 10.8988 30.0138 10.8988C30.0846 10.8988 30.1567 10.8862 30.2269 10.8597C30.5388 10.742 30.6962 10.3938 30.5784 10.0818L28.8334 5.45752ZM27.6252 8.53967L28.1682 7.1141L28.7062 8.53967H27.6252Z" fill="white"/>
<path d="M35.1817 9.68728C35.1805 9.68728 35.1793 9.68728 35.1782 9.68728C34.8617 9.6891 34.4638 9.69069 34.1429 9.69116V5.60486C34.1429 5.27147 33.8727 5.00128 33.5393 5.00128C33.2059 5.00128 32.9356 5.27147 32.9356 5.60486V10.2909C32.9356 10.5845 33.147 10.8356 33.4363 10.8856C33.4802 10.8932 33.5124 10.8988 34.0306 10.8988C34.282 10.8988 34.6479 10.8975 35.1849 10.8944C35.5183 10.8925 35.7871 10.6208 35.7852 10.2875C35.7833 9.95525 35.5135 9.68728 35.1817 9.68728Z" fill="white"/>
<path d="M15.1878 7.34618H13.7848C13.4514 7.34618 13.1812 7.61637 13.1812 7.94976C13.1812 8.28316 13.4514 8.55343 13.7848 8.55343H14.5116C14.3592 9.15923 13.9531 9.6912 13.1635 9.6912C12.2033 9.6912 11.4222 8.91006 11.4222 7.94984C11.4222 6.98963 12.2033 6.20848 13.1635 6.20848C13.5126 6.20848 13.8491 6.31118 14.1366 6.5054C14.4129 6.69216 14.7881 6.61944 14.9747 6.34322C15.1614 6.06693 15.0888 5.69174 14.8126 5.50514C14.3246 5.17539 13.7544 5.00116 13.1635 5.00116C11.5377 5.00116 10.2149 6.32395 10.2149 7.94976C10.2149 9.57558 11.5377 10.8984 13.1635 10.8984C14.7108 10.8984 15.7915 9.68589 15.7915 7.94976C15.7914 7.61645 15.5212 7.34618 15.1878 7.34618Z" fill="white"/>
<path d="M20.9895 5.00116C19.3637 5.00116 18.0409 6.32395 18.0409 7.94976C18.0409 9.57558 19.3637 10.8984 20.9895 10.8984C22.6153 10.8984 23.9381 9.57558 23.9381 7.94976C23.9381 6.32395 22.6154 5.00116 20.9895 5.00116ZM20.9895 9.6912C20.0293 9.6912 19.2481 8.91006 19.2481 7.94984C19.2481 6.98963 20.0293 6.20848 20.9895 6.20848C21.9497 6.20848 22.7309 6.98963 22.7309 7.94984C22.7309 8.91006 21.9497 9.6912 20.9895 9.6912Z" fill="white"/>
<defs>
<linearGradient id="paint0_linear" x1="7.22495e-07" y1="45.9388" x2="53.8158" y2="33.1806" gradientUnits="userSpaceOnUse">
<stop stop-color="#EF4136"/>
<stop offset="1" stop-color="#FAB423"/>
</linearGradient>
<linearGradient id="paint1_linear" x1="7.22495e-07" y1="45.9388" x2="53.8158" y2="33.1806" gradientUnits="userSpaceOnUse">
<stop stop-color="#EF4136"/>
<stop offset="1" stop-color="#FAB423"/>
</linearGradient>
</defs>
</svg>
