<svg width="46" height="46" viewBox="0 0 46 46" fill="none" xmlns="http://www.w3.org/2000/svg">
<g clip-path="url(#clip0)">
<path d="M22.999 45.9989C35.7009 45.9989 45.9979 35.7019 45.9979 22.9999C45.9979 10.298 35.7009 0.000976562 22.999 0.000976562C10.297 0.000976562 0 10.298 0 22.9999C0 35.7019 10.297 45.9989 22.999 45.9989Z" fill="url(#paint0_linear)"/>
<path d="M40.5322 2.45459H7.60271C4.5829 2.45459 2.13487 4.90262 2.13487 7.92243V26.596C2.13487 29.6158 4.5829 32.0638 7.60271 32.0638C9.45793 32.0638 10.9619 33.5678 10.9619 35.4229V39.5163C10.9619 40.7252 12.5429 41.1818 13.1873 40.159L15.7266 36.1292C17.3211 33.5988 20.1028 32.0637 23.0938 32.0637H40.5323C43.5521 32.0637 46.0001 29.6157 46.0001 26.5959V7.92243C46 4.90262 43.552 2.45459 40.5322 2.45459Z" fill="#E0E1E1"/>
<path d="M13.5881 32.0638C10.5683 32.0638 8.12024 29.6158 8.12024 26.596V7.92243C8.12024 4.90262 10.5683 2.45459 13.5881 2.45459H7.60271C4.5829 2.45459 2.13487 4.90262 2.13487 7.92243V26.596C2.13487 29.6158 4.5829 32.0638 7.60271 32.0638C9.45793 32.0638 10.9619 33.5678 10.9619 35.423V39.5164C10.9619 40.7252 12.5428 41.1818 13.1873 40.1591L15.7266 36.1293C16.0571 35.6047 16.4412 35.1258 16.865 34.6916C16.5308 33.1885 15.1918 32.0638 13.5881 32.0638Z" fill="#BEBFC0"/>
<path d="M23.5129 24.2256C23.792 23.9466 24.1297 23.8071 24.5261 23.8071C24.9131 23.8071 25.2465 23.9466 25.5256 24.2256C25.8047 24.505 25.9444 24.8383 25.9444 25.2254C25.9444 25.6217 25.8047 25.9595 25.5256 26.2383C25.2465 26.5177 24.9131 26.6572 24.5261 26.6572C24.1298 26.6572 23.792 26.5177 23.5129 26.2383C23.2336 25.9595 23.0941 25.6217 23.0941 25.2254C23.0941 24.8384 23.2337 24.505 23.5129 24.2256ZM25.4176 7.12455C25.6608 7.36768 25.7822 7.66489 25.7822 8.01597V21.3215C25.7822 21.6727 25.6608 21.9698 25.4176 22.2129C25.1654 22.4651 24.8683 22.5912 24.5262 22.5912C24.175 22.5912 23.8729 22.4651 23.6211 22.2129C23.3779 21.9698 23.2565 21.6726 23.2565 21.3215V8.01597C23.2565 7.66479 23.3779 7.36768 23.6211 7.12455C23.873 6.88142 24.1751 6.75995 24.5262 6.75995C24.8683 6.75995 25.1654 6.88142 25.4176 7.12455Z" fill="#080E2D"/>
</g>
<defs>
<linearGradient id="paint0_linear" x1="7.22462e-07" y1="45.9377" x2="53.8134" y2="33.1801" gradientUnits="userSpaceOnUse">
<stop stop-color="#EF4136"/>
<stop offset="1" stop-color="#FAB423"/>
</linearGradient>
<clipPath id="clip0">
<rect width="46" height="46" fill="white"/>
</clipPath>
</defs>
</svg>
