<svg width="46" height="46" viewBox="0 0 46 46" fill="none" xmlns="http://www.w3.org/2000/svg">
<path d="M22.999 45.9989C35.7009 45.9989 45.9979 35.7019 45.9979 22.9999C45.9979 10.298 35.7009 0.000976562 22.999 0.000976562C10.297 0.000976562 0 10.298 0 22.9999C0 35.7019 10.297 45.9989 22.999 45.9989Z" fill="url(#paint0_linear)"/>
<path d="M21.7458 37.8132C21.6275 37.2302 21.378 36.6819 21.0162 36.2098C20.6544 35.7376 20.1899 35.3541 19.6578 35.0882L15.0785 33.1332V33.0136C13.9972 33.5191 12.8181 33.7812 11.6244 33.7812C10.4308 33.7812 9.2517 33.5191 8.17039 33.0136V33.1332L3.59105 35.0882C2.98927 35.3889 2.47502 35.8394 2.09784 36.3965C1.72066 36.9535 1.49325 37.5983 1.4375 38.2687V43.2478H21.8114V38.2687C21.7992 38.1156 21.7773 37.9635 21.7458 37.8132Z" fill="#FAB423"/>
<path d="M6.28637 35.0882L9.82145 33.5788C9.25243 33.4501 8.6989 33.2606 8.17039 33.0135V33.1331L3.59105 35.0881C2.98925 35.3888 2.475 35.8394 2.09782 36.3964C1.72064 36.9535 1.49324 37.5983 1.4375 38.2687V43.2478H4.13281V38.2687C4.18856 37.5983 4.41598 36.9535 4.79316 36.3965C5.17034 35.8394 5.68458 35.3889 6.28637 35.0882Z" fill="#EF4136"/>
<path d="M42.7656 4.40656H18.5114C18.0348 4.40656 17.5778 4.59587 17.2408 4.93285C16.9038 5.26983 16.7145 5.72687 16.7145 6.20343V11.2913C18.0294 12.6733 18.7616 14.5084 18.7594 16.416V19.2595H18.9355C19.2318 19.2825 19.5132 19.3986 19.7395 19.5913C19.9658 19.784 20.1252 20.0434 20.1951 20.3323C20.2561 20.581 20.2654 20.8397 20.2224 21.0922C20.1795 21.3448 20.0851 21.5858 19.9452 21.8004C19.8053 22.015 19.6229 22.1986 19.4092 22.3398C19.1955 22.4811 18.955 22.5769 18.7028 22.6215V23.5451C18.7053 25.4067 17.9933 27.1982 16.7136 28.5503L16.7145 28.5512V33.8322L19.6578 35.0882C20.1899 35.3541 20.6544 35.7376 21.0162 36.2098C21.378 36.6819 21.6275 37.2302 21.7458 37.8132H42.7656C43.0016 37.8132 43.2353 37.7668 43.4533 37.6765C43.6714 37.5863 43.8695 37.4539 44.0364 37.287C44.2032 37.1202 44.3356 36.922 44.4259 36.704C44.5161 36.486 44.5626 36.2523 44.5625 36.0163V6.20343C44.5625 5.72687 44.3732 5.26983 44.0362 4.93285C43.6992 4.59587 43.2422 4.40656 42.7656 4.40656Z" fill="#DEF5F7"/>
<path d="M25.8633 20.8363C28.8405 20.8363 31.254 18.4228 31.254 15.4457C31.254 12.4685 28.8405 10.0551 25.8633 10.0551C22.8862 10.0551 20.4727 12.4685 20.4727 15.4457C20.4727 18.4228 22.8862 20.8363 25.8633 20.8363Z" fill="#228891"/>
<path d="M22.2696 15.4456C22.27 14.1718 22.7214 12.9394 23.5436 11.9666C24.3658 10.9938 25.5059 10.3435 26.7618 10.131C25.9886 9.99977 25.1961 10.0389 24.4396 10.2455C23.6831 10.4521 22.9808 10.8213 22.3816 11.3274C21.7825 11.8334 21.301 12.464 20.9707 13.1753C20.6405 13.8866 20.4694 14.6614 20.4694 15.4456C20.4694 16.2298 20.6405 17.0046 20.9707 17.7159C21.301 18.4272 21.7825 19.0578 22.3816 19.5639C22.9808 20.0699 23.6831 20.4391 24.4396 20.6457C25.1961 20.8524 25.9886 20.8915 26.7618 20.7603C25.5058 20.5478 24.3657 19.8976 23.5434 18.9247C22.7211 17.9519 22.2698 16.7194 22.2696 15.4456Z" fill="#2EBAC6"/>
<path d="M18.7594 19.2596V19.3422C18.7594 19.3422 12.3975 20.4635 8.13176 16.6622C7.25574 16.7359 6.37616 16.7581 5.49754 16.7287L5.29898 19.9873C5.29705 20.0121 5.28902 20.036 5.27561 20.0569C5.2622 20.0778 5.24383 20.0951 5.22213 20.1072C5.20043 20.1193 5.17608 20.1258 5.15124 20.1262C5.1264 20.1266 5.10185 20.1209 5.07976 20.1095L4.1993 19.6576C4.10632 19.6096 4.02725 19.5386 3.96966 19.4513C3.91207 19.3639 3.87791 19.2633 3.87047 19.1589V16.416C3.87047 14.4416 4.65479 12.5481 6.0509 11.152C7.447 9.75588 9.34053 8.97156 11.3149 8.97156C13.2893 8.97156 15.1828 9.75588 16.5789 11.152C17.975 12.5481 18.7594 14.4416 18.7594 16.416V19.2596Z" fill="#0B133D"/>
<path d="M7.84785 11.1521C9.02516 9.97283 10.5651 9.22414 12.2196 9.02654C11.9195 8.99003 11.6173 8.97167 11.3149 8.97156C9.34055 8.97163 7.44707 9.75598 6.05098 11.1521C4.65489 12.5482 3.87054 14.4416 3.87047 16.416V19.1589C3.87791 19.2633 3.91207 19.3639 3.96966 19.4513C4.02725 19.5386 4.10632 19.6096 4.1993 19.6576L5.07976 20.1095C5.10185 20.1208 5.1264 20.1266 5.15123 20.1261C5.17606 20.1257 5.2004 20.1192 5.22209 20.1071C5.24378 20.095 5.26215 20.0777 5.27557 20.0568C5.28898 20.0359 5.29703 20.0121 5.29898 19.9873C5.29898 19.9873 4.91203 14.0875 7.84785 11.1521Z" fill="#080E2D"/>
<path d="M15.0785 29.8503V33.0137C13.9972 33.5192 12.8181 33.7812 11.6244 33.7812C10.4308 33.7812 9.25171 33.5192 8.17039 33.0137V30.0857C9.25175 30.62 10.4486 30.8782 11.654 30.8371C12.8595 30.796 14.036 30.457 15.0785 29.8503Z" fill="#EFC597"/>
<path d="M9.96727 33.0136V30.6986C9.34404 30.5739 8.7399 30.3679 8.17039 30.0857V33.0136C9.52773 33.6482 11.0337 33.8965 12.5229 33.7314C11.6375 33.6334 10.7742 33.3909 9.96727 33.0136Z" fill="#D8AD82"/>
<path d="M15.0785 29.8503C13.9697 30.4963 12.7102 30.8385 11.427 30.8422C10.1438 30.846 8.88228 30.5112 7.76978 29.8717C6.65729 29.2321 5.73316 28.3104 5.09066 27.1997C4.44816 26.0889 4.11002 24.8283 4.11035 23.545V22.6214C3.85827 22.5765 3.61806 22.4804 3.40453 22.339C3.191 22.1977 3.00867 22.0142 2.86878 21.7997C2.72889 21.5852 2.63439 21.3444 2.59111 21.092C2.54784 20.8396 2.5567 20.5811 2.61715 20.3322C2.68718 20.0433 2.84683 19.7839 3.07324 19.5912C3.29966 19.3985 3.58123 19.2824 3.87766 19.2595L3.88574 19.2577C3.9061 19.343 3.94467 19.4229 3.99879 19.4919C4.05291 19.5609 4.12131 19.6174 4.1993 19.6575L5.07977 20.1094C5.10185 20.1208 5.1264 20.1265 5.15124 20.1261C5.17608 20.1257 5.20043 20.1192 5.22213 20.1071C5.24383 20.095 5.2622 20.0777 5.27561 20.0568C5.28902 20.0359 5.29705 20.012 5.29898 19.9872L5.49754 16.7286C6.37616 16.758 7.25574 16.7358 8.13176 16.6621C12.3975 20.4634 18.7594 19.3421 18.7594 19.3421V19.2595H18.9355C19.2318 19.2824 19.5132 19.3986 19.7395 19.5913C19.9658 19.784 20.1252 20.0433 20.1951 20.3322C20.2561 20.581 20.2654 20.8397 20.2224 21.0922C20.1795 21.3447 20.0851 21.5858 19.9452 21.8004C19.8053 22.015 19.6229 22.1986 19.4092 22.3398C19.1955 22.481 18.955 22.5769 18.7028 22.6214V23.545C18.7053 25.4066 17.9933 27.1982 16.7136 28.5502C16.666 28.6024 16.6157 28.6536 16.5654 28.7039C16.1212 29.1484 15.6214 29.5337 15.0785 29.8503Z" fill="#FFD8B7"/>
<path d="M9.27264 21.3693C9.27264 22.0096 8.75337 22.5289 8.11269 22.5289C7.47202 22.5289 6.95274 22.0096 6.95274 21.3693C6.95274 20.7286 7.47202 20.2094 8.11269 20.2094C8.75337 20.2094 9.27264 20.7286 9.27264 21.3693Z" fill="#0B133D"/>
<path d="M15.947 21.3693C15.947 22.0096 15.4278 22.5289 14.7871 22.5289C14.1464 22.5289 13.6275 22.0096 13.6275 21.3693C13.6275 20.7286 14.1464 20.2094 14.7871 20.2094C15.4278 20.2094 15.947 20.7286 15.947 21.3693Z" fill="#0B133D"/>
<path d="M9.03596 21.1646C9.03596 21.439 8.81356 21.6614 8.53913 21.6614C8.2647 21.6614 8.0423 21.439 8.0423 21.1646C8.0423 20.8902 8.2647 20.6678 8.53913 20.6678C8.81356 20.6678 9.03596 20.8902 9.03596 21.1646Z" fill="white"/>
<path d="M15.7675 21.1646C15.7675 21.439 15.5451 21.6614 15.2707 21.6614C14.9959 21.6614 14.7735 21.439 14.7735 21.1646C14.7735 20.8902 14.9959 20.6678 15.2707 20.6678C15.5451 20.6678 15.7675 20.8902 15.7675 21.1646Z" fill="white"/>
<path d="M12.6097 25.0005H10.2901C10.0136 25.0005 9.78989 24.7767 9.78989 24.5002C9.78989 24.2238 10.0136 24 10.2901 24H12.6097C12.8861 24 13.1099 24.2238 13.1099 24.5002C13.1099 24.7764 12.8861 25.0005 12.6097 25.0005Z" fill="#E8BC9E"/>
<path d="M11.45 27.7111C10.5938 27.7111 9.73784 27.4966 8.9574 27.0674C8.73738 26.9467 8.65679 26.6699 8.77785 26.4498C8.89891 26.2298 9.17538 26.1496 9.3954 26.2703C10.6818 26.9776 12.2179 26.9776 13.5044 26.2703C13.7244 26.1496 14.0008 26.2298 14.1219 26.4498C14.243 26.6699 14.1627 26.9467 13.9424 27.0674C13.1623 27.4966 12.306 27.7111 11.45 27.7111Z" fill="#E8BC9E"/>
<path d="M9.96726 30.0858C8.74805 29.4824 7.72179 28.5503 7.00436 27.3945C6.28694 26.2388 5.90692 24.9055 5.90721 23.5451V22.6215C5.65513 22.5766 5.41492 22.4805 5.2014 22.3391C4.98787 22.1978 4.80554 22.0143 4.66564 21.7998C4.52575 21.5853 4.43125 21.3445 4.38798 21.0921C4.3447 20.8397 4.35356 20.5811 4.41401 20.3323C4.45391 20.1681 4.52289 20.0123 4.61769 19.8723L4.19928 19.6579C4.12129 19.6178 4.0529 19.5613 3.99878 19.4923C3.94465 19.4232 3.90609 19.3434 3.88573 19.2581L3.87764 19.2599C3.58122 19.2828 3.29965 19.3989 3.07323 19.5916C2.84681 19.7843 2.68716 20.0436 2.61714 20.3326C2.55617 20.5814 2.54692 20.8402 2.58998 21.0927C2.63304 21.3453 2.72747 21.5863 2.86745 21.8009C3.00742 22.0155 3.18995 22.1991 3.40374 22.3403C3.61753 22.4815 3.85802 22.5773 4.11034 22.6218V23.5454C4.10987 24.5037 4.29827 25.4527 4.66477 26.3381C5.03127 27.2235 5.56869 28.0281 6.2463 28.7057C6.92391 29.3833 7.72842 29.9207 8.61385 30.2872C9.49929 30.6537 10.4483 30.8421 11.4066 30.8416C11.7064 30.8414 12.006 30.8228 12.3036 30.7861C11.4908 30.6862 10.7009 30.4494 9.96726 30.0858Z" fill="#E8BC9E"/>
<path d="M40.1228 20.9953H36.1817C36.0387 20.9953 35.9016 20.9385 35.8005 20.8374C35.6994 20.7363 35.6426 20.5992 35.6426 20.4562C35.6426 20.3133 35.6994 20.1762 35.8005 20.0751C35.9016 19.974 36.0387 19.9172 36.1817 19.9172H40.1228C40.2657 19.9172 40.4029 19.974 40.504 20.0751C40.605 20.1762 40.6618 20.3133 40.6618 20.4562C40.6618 20.5992 40.605 20.7363 40.504 20.8374C40.4029 20.9385 40.2657 20.9953 40.1228 20.9953Z" fill="#7E868F"/>
<path d="M33.8596 20.9953H32.5375C32.3946 20.9953 32.2575 20.9385 32.1564 20.8374C32.0553 20.7363 31.9985 20.5992 31.9985 20.4562C31.9985 20.3133 32.0553 20.1762 32.1564 20.0751C32.2575 19.974 32.3946 19.9172 32.5375 19.9172H33.8596C34.0026 19.9172 34.1397 19.974 34.2408 20.0751C34.3419 20.1762 34.3986 20.3133 34.3986 20.4562C34.3986 20.5992 34.3419 20.7363 34.2408 20.8374C34.1397 20.9385 34.0026 20.9953 33.8596 20.9953Z" fill="#7E868F"/>
<path d="M40.1228 26.8257H38.7846C38.6416 26.8257 38.5045 26.769 38.4034 26.6679C38.3023 26.5668 38.2455 26.4297 38.2455 26.2867C38.2455 26.1437 38.3023 26.0066 38.4034 25.9055C38.5045 25.8044 38.6416 25.7476 38.7846 25.7476H40.1228C40.2658 25.7476 40.4029 25.8044 40.504 25.9055C40.605 26.0066 40.6618 26.1437 40.6618 26.2867C40.6618 26.4297 40.605 26.5668 40.504 26.6679C40.4029 26.769 40.2658 26.8257 40.1228 26.8257Z" fill="#7E868F"/>
<path d="M36.9201 26.8257H29.7812C29.6383 26.8257 29.5011 26.769 29.4 26.6679C29.299 26.5668 29.2422 26.4297 29.2422 26.2867C29.2422 26.1437 29.299 26.0066 29.4 25.9055C29.5011 25.8044 29.6383 25.7476 29.7812 25.7476H36.9201C37.0631 25.7476 37.2002 25.8044 37.3013 25.9055C37.4024 26.0066 37.4592 26.1437 37.4592 26.2867C37.4592 26.4297 37.4024 26.5668 37.3013 26.6679C37.2002 26.769 37.0631 26.8257 36.9201 26.8257Z" fill="#7E868F"/>
<path d="M27.8908 26.8257H27.4092C27.2662 26.8257 27.1291 26.769 27.028 26.6679C26.9269 26.5668 26.8701 26.4297 26.8701 26.2867C26.8701 26.1437 26.9269 26.0066 27.028 25.9055C27.1291 25.8044 27.2662 25.7476 27.4092 25.7476H27.8908C28.0338 25.7476 28.1709 25.8044 28.272 25.9055C28.3731 26.0066 28.4299 26.1437 28.4299 26.2867C28.4299 26.4297 28.3731 26.5668 28.272 26.6679C28.1709 26.769 28.0338 26.8257 27.8908 26.8257Z" fill="#7E868F"/>
<path d="M25.0871 26.8257H22.0308C21.8878 26.8257 21.7507 26.769 21.6496 26.6679C21.5485 26.5668 21.4917 26.4297 21.4917 26.2867C21.4917 26.1437 21.5485 26.0066 21.6496 25.9055C21.7507 25.8044 21.8878 25.7476 22.0308 25.7476H25.0871C25.23 25.7476 25.3671 25.8044 25.4682 25.9055C25.5693 26.0066 25.6261 26.1437 25.6261 26.2867C25.6261 26.4297 25.5693 26.5668 25.4682 26.6679C25.3671 26.769 25.23 26.8257 25.0871 26.8257Z" fill="#7E868F"/>
<path d="M40.1228 32.2147H37.038C36.895 32.2147 36.7579 32.1579 36.6568 32.0568C36.5557 31.9557 36.4989 31.8186 36.4989 31.6756C36.4989 31.5326 36.5557 31.3955 36.6568 31.2944C36.7579 31.1933 36.895 31.1365 37.038 31.1365H40.1228C40.2658 31.1365 40.4029 31.1933 40.504 31.2944C40.605 31.3955 40.6618 31.5326 40.6618 31.6756C40.6618 31.8186 40.605 31.9557 40.504 32.0568C40.4029 32.1579 40.2658 32.2147 40.1228 32.2147Z" fill="#7E868F"/>
<path d="M35.1032 32.2147H34.7156C34.5727 32.2147 34.4355 32.1579 34.3344 32.0568C34.2334 31.9557 34.1766 31.8186 34.1766 31.6756C34.1766 31.5326 34.2334 31.3955 34.3344 31.2944C34.4355 31.1933 34.5727 31.1365 34.7156 31.1365H35.1029C35.2459 31.1365 35.383 31.1933 35.4841 31.2944C35.5852 31.3955 35.642 31.5326 35.642 31.6756C35.642 31.8186 35.5852 31.9557 35.4841 32.0568C35.383 32.1579 35.2459 32.2147 35.1029 32.2147H35.1032Z" fill="#7E868F"/>
<path d="M33.1985 32.2147H30.2684C30.1254 32.2147 29.9883 32.1579 29.8872 32.0568C29.7861 31.9557 29.7293 31.8186 29.7293 31.6756C29.7293 31.5326 29.7861 31.3955 29.8872 31.2944C29.9883 31.1933 30.1254 31.1365 30.2684 31.1365H33.1986C33.3416 31.1365 33.4787 31.1933 33.5798 31.2944C33.6809 31.3955 33.7377 31.5326 33.7377 31.6756C33.7377 31.8186 33.6809 31.9557 33.5798 32.0568C33.4787 32.1579 33.3416 32.2147 33.1986 32.2147H33.1985Z" fill="#7E868F"/>
<path d="M27.8908 32.2147H22.0308C21.8878 32.2147 21.7507 32.1579 21.6496 32.0568C21.5485 31.9557 21.4917 31.8186 21.4917 31.6756C21.4917 31.5326 21.5485 31.3955 21.6496 31.2944C21.7507 31.1933 21.8878 31.1365 22.0308 31.1365H27.8908C28.0338 31.1365 28.1709 31.1933 28.272 31.2944C28.3731 31.3955 28.4299 31.5326 28.4299 31.6756C28.4299 31.8186 28.3731 31.9557 28.272 32.0568C28.1709 32.1579 28.0338 32.2147 27.8908 32.2147Z" fill="#7E868F"/>
<path d="M40.1228 16.4055H39.7749C39.6319 16.4055 39.4948 16.3487 39.3937 16.2476C39.2926 16.1465 39.2358 16.0094 39.2358 15.8665C39.2358 15.7235 39.2926 15.5864 39.3937 15.4853C39.4948 15.3842 39.6319 15.3274 39.7749 15.3274H40.1228C40.2658 15.3274 40.4029 15.3842 40.504 15.4853C40.605 15.5864 40.6618 15.7235 40.6618 15.8665C40.6618 16.0094 40.605 16.1465 40.504 16.2476C40.4029 16.3487 40.2658 16.4055 40.1228 16.4055Z" fill="#7E868F"/>
<path d="M37.4529 16.4055H33.632C33.4891 16.4055 33.3519 16.3487 33.2508 16.2476C33.1498 16.1465 33.093 16.0094 33.093 15.8665C33.093 15.7235 33.1498 15.5864 33.2508 15.4853C33.3519 15.3842 33.4891 15.3274 33.632 15.3274H37.4529C37.5959 15.3274 37.733 15.3842 37.8341 15.4853C37.9352 15.5864 37.992 15.7235 37.992 15.8665C37.992 16.0094 37.9352 16.1465 37.8341 16.2476C37.733 16.3487 37.5959 16.4055 37.4529 16.4055Z" fill="#7E868F"/>
<path d="M40.1228 11.9133H36.2714C36.1285 11.9133 35.9914 11.8565 35.8903 11.7554C35.7892 11.6544 35.7324 11.5172 35.7324 11.3743C35.7324 11.2313 35.7892 11.0942 35.8903 10.9931C35.9914 10.892 36.1285 10.8352 36.2714 10.8352H40.1228C40.2657 10.8352 40.4029 10.892 40.5039 10.9931C40.605 11.0942 40.6618 11.2313 40.6618 11.3743C40.6618 11.5172 40.605 11.6544 40.5039 11.7554C40.4029 11.8565 40.2657 11.9133 40.1228 11.9133Z" fill="#7E868F"/>
<path d="M33.9494 11.9133H33.632C33.4891 11.9133 33.3519 11.8565 33.2508 11.7554C33.1498 11.6544 33.093 11.5172 33.093 11.3743C33.093 11.2313 33.1498 11.0942 33.2508 10.9931C33.3519 10.892 33.4891 10.8352 33.632 10.8352H33.9494C34.0924 10.8352 34.2295 10.892 34.3306 10.9931C34.4317 11.0942 34.4885 11.2313 34.4885 11.3743C34.4885 11.5172 34.4317 11.6544 34.3306 11.7554C34.2295 11.8565 34.0924 11.9133 33.9494 11.9133Z" fill="#7E868F"/>
<path d="M24.6631 17.954C24.5923 17.954 24.5222 17.9401 24.4568 17.913C24.3914 17.8859 24.332 17.8462 24.2819 17.7961L22.7456 16.2594C22.6944 16.2095 22.6536 16.1501 22.6256 16.0844C22.5976 16.0187 22.583 15.9481 22.5825 15.8767C22.582 15.8053 22.5957 15.7345 22.6228 15.6684C22.6499 15.6024 22.6899 15.5424 22.7404 15.4919C22.7909 15.4414 22.8509 15.4014 22.917 15.3743C22.983 15.3472 23.0538 15.3335 23.1252 15.334C23.1966 15.3345 23.2672 15.3492 23.3329 15.3772C23.3986 15.4052 23.4581 15.4459 23.5079 15.4971L24.6635 16.6526L28.2199 13.0958C28.3213 12.996 28.458 12.9404 28.6002 12.941C28.7424 12.9416 28.8786 12.9983 28.9792 13.0989C29.0797 13.1994 29.1365 13.3356 29.137 13.4778C29.1376 13.6201 29.082 13.7567 28.9823 13.8581L25.0442 17.7961C24.9431 17.8972 24.806 17.954 24.6631 17.954Z" fill="#F4F8FC"/>
<path d="M22.9506 2.75256H39.2249V5.84139H22.9506V2.75256Z" fill="#080E2D"/>
<defs>
<linearGradient id="paint0_linear" x1="-7.37165e-07" y1="45.9377" x2="52.6062" y2="30.0436" gradientUnits="userSpaceOnUse">
<stop stop-color="#BE1E2D"/>
<stop offset="1" stop-color="#EE2A7B"/>
</linearGradient>
</defs>
</svg>
